Whois-mono.ufo
<glyph name="uni0000" format="1">
  <advance width="998"/>
  <unicode hex="0000"/>
  <outline>
    <contour>
      <point x="499" y="809" type="curve" smooth="yes"/>
      <point x="576" y="809"/>
      <point x="637" y="745"/>
      <point x="637" y="668" type="curve" smooth="yes"/>
      <point x="637" y="591"/>
      <point x="576" y="530"/>
      <point x="499" y="530" type="curve" smooth="yes"/>
      <point x="422" y="530"/>
      <point x="361" y="591"/>
      <point x="361" y="668" type="curve" smooth="yes"/>
      <point x="361" y="745"/>
      <point x="422" y="809"/>
    </contour>
  </outline>
</glyph>
<glyph name="quotedbl" format="1">
  <advance width="998"/>
  <unicode hex="0022"/>
  <outline>
    <contour>
      <point x="563" y="1331" type="line"/>
      <point x="684" y="1331" type="line"/>
      <point x="684" y="999" type="line"/>
      <point x="563" y="999" type="line"/>
    </contour>
    <contour>
      <point x="315" y="1331" type="line"/>
      <point x="435" y="1331" type="line"/>
      <point x="435" y="999" type="line"/>
      <point x="315" y="999" type="line"/>
    </contour>
  </outline>
</glyph>
<glyph name="dollar" format="1">
  <advance width="390"/>
  <unicode hex="0024"/>
  <outline>
    <contour>
      <point x="176" y="568" type="line" smooth="no"/>
      <point x="224" y="568" type="line" smooth="no"/>
      <point x="224" y="517.263" type="line" smooth="no"/>
      <point x="303.638" y="505.844"/>
      <point x="331" y="442"/>
      <point x="331" y="442" type="curve" smooth="no"/>
      <point x="287" y="417" type="line" smooth="no"/>
      <point x="287" y="417"/>
      <point x="275.554" y="456.679"/>
      <point x="224" y="466.715" type="curve" smooth="no"/>
      <point x="224" y="281.204" type="line" smooth="no"/>
      <point x="292.771" y="250.585"/>
      <point x="333.765" y="218.642"/>
      <point x="341" y="168" type="curve" smooth="yes"/>
      <point x="350.714" y="94.1753"/>
      <point x="307.719" y="15.5798"/>
      <point x="224" y="2.04056" type="curve" smooth="no"/>
      <point x="224" y="-55" type="line" smooth="no"/>
      <point x="176" y="-55" type="line" smooth="no"/>
      <point x="176" y="0.832812" type="line" smooth="no"/>
      <point x="87.9851" y="7.7484"/>
      <point x="62.9776" y="56.0448"/>
      <point x="50" y="82" type="curve" smooth="no"/>
      <point x="95" y="105" type="line" smooth="no"/>
      <point x="113.546" y="74.9737"/>
      <point x="125.852" y="55.0862"/>
      <point x="176" y="51.5365" type="curve" smooth="no"/>
      <point x="176" y="246.588" type="line" smooth="no"/>
      <point x="131.522" y="266.147"/>
      <point x="60.1089" y="306.246"/>
      <point x="59" y="375" type="curve" smooth="yes"/>
      <point x="58.0845" y="431.762"/>
      <point x="96.6812" y="505.287"/>
      <point x="176" y="517.306" type="curve" smooth="no"/>
    </contour>
    <contour>
      <point x="176" y="302.324" type="curve" smooth="no"/>
      <point x="176" y="466.478" type="line" smooth="no"/>
      <point x="136.651" y="457.491"/>
      <point x="109.156" y="424.93"/>
      <point x="110" y="376" type="curve" smooth="yes"/>
      <point x="110.131" y="368.412"/>
      <point x="108.347" y="336.423"/>
    </contour>
    <contour>
      <point x="224" y="228.743" type="curve" smooth="no"/>
      <point x="224" y="54.2924" type="line" smooth="no"/>
      <point x="278.355" y="68.0635"/>
      <point x="297.005" y="121.968"/>
      <point x="291" y="161" type="curve" smooth="yes"/>
      <point x="288.818" y="176.999"/>
      <point x="282.498" y="199.214"/>
    </contour>
  </outline>
</glyph>
<glyph name="percent" format="1">
  <advance width="998"/>
  <unicode hex="0025"/>
  <outline>
    <contour>
      <point x="501" y="246" type="curve" smooth="yes"/>
      <point x="501" y="381.792"/>
      <point x="604.488" y="492"/>
      <point x="732" y="492" type="curve" smooth="yes"/>
      <point x="859.512" y="492"/>
      <point x="963" y="381.792"/>
      <point x="963" y="246" type="curve" smooth="yes"/>
      <point x="963" y="110.208"/>
      <point x="859.512" y="0"/>
      <point x="732" y="0" type="curve" smooth="yes"/>
      <point x="604.488" y="0"/>
      <point x="501" y="110.208"/>
    </contour>
    <contour>
      <point x="616" y="246" type="curve" smooth="yes"/>
      <point x="616" y="176.448"/>
      <point x="668.416" y="120"/>
      <point x="733" y="120" type="curve" smooth="yes"/>
      <point x="797.584" y="120"/>
      <point x="850" y="176.448"/>
      <point x="850" y="246" type="curve" smooth="yes"/>
      <point x="850" y="315.552"/>
      <point x="797.584" y="372"/>
      <point x="733" y="372" type="curve" smooth="yes"/>
      <point x="668.416" y="372"/>
      <point x="616" y="315.552"/>
    </contour>
    <contour>
      <point x="900" y="1119" type="line" smooth="no"/>
      <point x="256" y="206.8" type="line" smooth="no"/>
      <point x="94" y="207.8" type="line" smooth="no"/>
      <point x="738" y="1120" type="line" smooth="no"/>
    </contour>
    <contour>
      <point x="36" y="1085.2" type="curve" smooth="yes"/>
      <point x="36" y="1220.99"/>
      <point x="139.488" y="1331.2"/>
      <point x="267" y="1331.2" type="curve" smooth="yes"/>
      <point x="394.512" y="1331.2"/>
      <point x="498" y="1220.99"/>
      <point x="498" y="1085.2" type="curve" smooth="yes"/>
      <point x="498" y="949.408"/>
      <point x="394.512" y="839.2"/>
      <point x="267" y="839.2" type="curve" smooth="yes"/>
      <point x="139.488" y="839.2"/>
      <point x="36" y="949.408"/>
    </contour>
    <contour>
      <point x="151" y="1085.2" type="curve" smooth="yes"/>
      <point x="151" y="1015.65"/>
      <point x="203.416" y="959.2"/>
      <point x="268" y="959.2" type="curve" smooth="yes"/>
      <point x="332.584" y="959.2"/>
      <point x="385" y="1015.65"/>
      <point x="385" y="1085.2" type="curve" smooth="yes"/>
      <point x="385" y="1154.75"/>
      <point x="332.584" y="1211.2"/>
      <point x="268" y="1211.2" type="curve" smooth="yes"/>
      <point x="203.416" y="1211.2"/>
      <point x="151" y="1154.75"/>
    </contour>
  </outline>
</glyph>
<glyph name="plus" format="1">
  <advance width="998"/>
  <unicode hex="002B"/>
  <outline>
    <contour>
      <point x="138" y="402" type="line"/>
      <point x="138" y="538" type="line"/>
      <point x="431" y="538" type="line"/>
      <point x="431" y="831" type="line"/>
      <point x="567" y="831" type="line"/>
      <point x="567" y="538" type="line"/>
      <point x="860" y="538" type="line"/>
      <point x="860" y="402" type="line"/>
      <point x="567" y="402" type="line"/>
      <point x="567" y="109" type="line"/>
      <point x="431" y="109" type="line"/>
      <point x="431" y="402" type="line"/>
    </contour>
  </outline>
</glyph>
<glyph name="comma" format="1">
  <advance width="998"/>
  <unicode hex="002c"/>
  <outline>
    <contour>
      <point x="439" y="243" type="line" smooth="no"/>
      <point x="639" y="212" type="line" smooth="no"/>
      <point x="483" y="-148" type="line" smooth="no"/>
      <point x="360" y="-148" type="line" smooth="no"/>
    </contour>
  </outline>
</glyph>
<glyph name="hyphen" format="1">
  <advance width="998"/>
  <unicode hex="002D"/>
  <outline>
    <contour>
      <point x="138" y="538" type="line"/>
      <point x="860" y="538" type="line"/>
      <point x="860" y="402" type="line"/>
      <point x="138" y="402" type="line"/>
    </contour>
  </outline>
</glyph>
<glyph name="zero" format="1">
  <advance width="390"/>
  <unicode hex="0030"/>
  <outline>
    <contour>
      <point x="194.855" y="520" type="curve" smooth="yes"/>
      <point x="252.855" y="520"/>
      <point x="297.654" y="485.98"/>
      <point x="322.836" y="437.92" type="curve" smooth="yes"/>
      <point x="348.016" y="389.85"/>
      <point x="357.846" y="327.98"/>
      <point x="357.846" y="260.8" type="curve" smooth="yes"/>
      <point x="357.846" y="193.35"/>
      <point x="346.599" y="129.689"/>
      <point x="320.919" y="81.7998" type="curve" smooth="yes"/>
      <point x="295.25" y="33.9102"/>
      <point x="251.041" y="0"/>
      <point x="194.71" y="0" type="curve" smooth="yes"/>
      <point x="138.371" y="0"/>
      <point x="94.0791" y="33.9004"/>
      <point x="68.4902" y="81.7998" type="curve" smooth="yes"/>
      <point x="42.8906" y="129.689"/>
      <point x="32.1543" y="193.37"/>
      <point x="32.1543" y="260.8" type="curve" smooth="yes"/>
      <point x="32.1543" y="327.96"/>
      <point x="41.7656" y="389.85"/>
      <point x="66.8652" y="437.92" type="curve" smooth="yes"/>
      <point x="91.9648" y="485.98"/>
      <point x="136.855" y="520"/>
    </contour>
    <contour>
      <point x="194.855" y="469.4" type="curve" smooth="yes"/>
      <point x="154.885" y="469.4"/>
      <point x="130.984" y="450.97"/>
      <point x="111.885" y="414.38" type="curve" smooth="yes"/>
      <point x="92.7754" y="377.79"/>
      <point x="82.7559" y="322.81"/>
      <point x="82.7559" y="260.8" type="curve" smooth="yes"/>
      <point x="82.7559" y="199.05"/>
      <point x="93.5693" y="142.39"/>
      <point x="113.21" y="105.63" type="curve" smooth="yes"/>
      <point x="132.849" y="68.8701"/>
      <point x="157.201" y="50.6104"/>
      <point x="194.71" y="50.6104" type="curve" smooth="yes"/>
      <point x="232.22" y="50.6104"/>
      <point x="256.791" y="68.8604"/>
      <point x="276.5" y="105.63" type="curve" smooth="yes"/>
      <point x="296.21" y="142.39"/>
      <point x="307.244" y="199.07"/>
      <point x="307.244" y="260.8" type="curve" smooth="yes"/>
      <point x="307.244" y="322.79"/>
      <point x="297.285" y="377.779"/>
      <point x="278.115" y="414.38" type="curve" smooth="yes"/>
      <point x="258.945" y="450.97"/>
      <point x="234.824" y="469.4"/>
    </contour>
    <contour>
      <point x="194.994" y="315.529" type="curve" smooth="yes"/>
      <point x="224.895" y="315.529"/>
      <point x="249.135" y="291.3"/>
      <point x="249.135" y="261.4" type="curve" smooth="yes"/>
      <point x="249.135" y="231.5"/>
      <point x="224.895" y="207.26"/>
      <point x="194.994" y="207.26" type="curve" smooth="yes"/>
      <point x="165.105" y="207.26"/>
      <point x="140.865" y="231.5"/>
      <point x="140.865" y="261.4" type="curve" smooth="yes"/>
      <point x="140.865" y="291.3"/>
      <point x="165.105" y="315.529"/>
    </contour>
  </outline>
</glyph>
<glyph name="one" format="1">
  <advance width="998"/>
  <unicode hex="0031"/>
  <outline>
    <contour>
      <point x="428" y="1331" type="curve"/>
      <point x="570" y="1331" type="line"/>
      <point x="571" y="131" type="line"/>
      <point x="922" y="131" type="line"/>
      <point x="922" y="0" type="line"/>
      <point x="77" y="0" type="line"/>
      <point x="77" y="131" type="line"/>
      <point x="440" y="131" type="line"/>
      <point x="442" y="1134" type="line"/>
      <point x="350" y="1024"/>
      <point x="267" y="929"/>
      <point x="154" y="870" type="curve"/>
      <point x="95" y="986" type="line"/>
      <point x="228" y="1055"/>
      <point x="338" y="1183"/>
    </contour>
  </outline>
</glyph>
<glyph name="two" format="1">
  <advance width="390"/>
  <unicode hex="0032"/>
  <outline>
    <contour>
      <point x="40.4844" y="402.38" type="line" smooth="no"/>
      <point x="46.5654" y="432.05"/>
      <point x="63.9785" y="467.58"/>
      <point x="101" y="493" type="curve" smooth="yes"/>
      <point x="138.023" y="518.43"/>
      <point x="199.872" y="528.36"/>
      <point x="248.202" y="513.89" type="curve" smooth="yes"/>
      <point x="295.648" y="499.68"/>
      <point x="338.085" y="465.44"/>
      <point x="346.763" y="414.45" type="curve" smooth="yes"/>
      <point x="354.036" y="371.71"/>
      <point x="348.817" y="335.48"/>
      <point x="329.405" y="302.05" type="curve" smooth="yes"/>
      <point x="309.994" y="268.63"/>
      <point x="278.565" y="238.055"/>
      <point x="234.963" y="191.72" type="curve" smooth="yes"/>
      <point x="102.025" y="50.6104" type="line" smooth="no"/>
      <point x="359.761" y="50.6104" type="line" smooth="no"/>
      <point x="359.761" y="0" type="line" smooth="no"/>
      <point x="30.2393" y="0" type="line" smooth="no"/>
      <point x="30.5303" y="49.7197" type="line" smooth="no"/>
      <point x="198.772" y="227.03" type="line" smooth="yes"/>
      <point x="242.447" y="273.212"/>
      <point x="271.303" y="302.8"/>
      <point x="285.565" y="327.36" type="curve" smooth="yes"/>
      <point x="299.828" y="351.92"/>
      <point x="301.312" y="378.82"/>
      <point x="297.039" y="405.909" type="curve" smooth="yes"/>
      <point x="292.734" y="433.2"/>
      <point x="267.717" y="455.1"/>
      <point x="233.489" y="465.35" type="curve" smooth="yes"/>
      <point x="199.26" y="475.59"/>
      <point x="158.553" y="471.96"/>
      <point x="130.513" y="452.4" type="curve" smooth="yes"/>
      <point x="103.994" y="433.89"/>
      <point x="94.2998" y="412.06"/>
      <point x="90.2061" y="392.09" type="curve" smooth="no"/>
    </contour>
  </outline>
</glyph>
<glyph name="three" format="1">
  <advance width="390"/>
  <unicode hex="0033"/>
  <outline>
    <contour>
      <point x="102" y="494" type="curve" smooth="yes"/>
      <point x="138" y="518"/>
      <point x="197" y="528"/>
      <point x="244" y="516" type="curve" smooth="yes"/>
      <point x="292" y="503"/>
      <point x="337" y="468"/>
      <point x="346" y="412" type="curve" smooth="yes"/>
      <point x="355" y="360"/>
      <point x="337" y="316"/>
      <point x="303" y="290" type="curve" smooth="yes"/>
      <point x="296" y="284"/>
      <point x="289" y="279"/>
      <point x="274" y="273" type="curve" smooth="no"/>
      <point x="300" y="267"/>
      <point x="337" y="232"/>
      <point x="348" y="192" type="curve" smooth="yes"/>
      <point x="362" y="140"/>
      <point x="350" y="91"/>
      <point x="321" y="56" type="curve" smooth="yes"/>
      <point x="292" y="21"/>
      <point x="247" y="0"/>
      <point x="198" y="0" type="curve" smooth="yes"/>
      <point x="108" y="-1"/>
      <point x="59" y="45"/>
      <point x="39" y="87" type="curve" smooth="no"/>
      <point x="84" y="109" type="line" smooth="no"/>
      <point x="93" y="91"/>
      <point x="121" y="50"/>
      <point x="198" y="51" type="curve" smooth="yes"/>
      <point x="233" y="51"/>
      <point x="263" y="66"/>
      <point x="282" y="89" type="curve" smooth="yes"/>
      <point x="301" y="112"/>
      <point x="309" y="141"/>
      <point x="299" y="178" type="curve" smooth="yes"/>
      <point x="284" y="229"/>
      <point x="229" y="249"/>
      <point x="166" y="249" type="curve" smooth="no"/>
      <point x="171" y="295" type="line" smooth="no"/>
      <point x="171" y="295"/>
      <point x="235" y="297"/>
      <point x="267" y="319" type="curve" smooth="yes"/>
      <point x="288" y="335"/>
      <point x="302" y="366"/>
      <point x="296" y="404" type="curve" smooth="yes"/>
      <point x="290" y="438"/>
      <point x="265" y="458"/>
      <point x="231" y="467" type="curve" smooth="yes"/>
      <point x="197" y="476"/>
      <point x="156" y="470"/>
      <point x="131" y="452" type="curve" smooth="yes"/>
      <point x="103" y="432"/>
      <point x="89" y="408"/>
      <point x="85" y="390" type="curve" smooth="no"/>
      <point x="36" y="400" type="line" smooth="no"/>
      <point x="43" y="432"/>
      <point x="64" y="467"/>
    </contour>
  </outline>
</glyph>
<glyph name="four" format="1">
  <advance width="390"/>
  <unicode hex="0034"/>
  <outline>
    <contour>
      <point x="247" y="520" type="line" smooth="no"/>
      <point x="298" y="520" type="line" smooth="no"/>
      <point x="298" y="179" type="line" smooth="no"/>
      <point x="359" y="179" type="line" smooth="no"/>
      <point x="359" y="129" type="line" smooth="no"/>
      <point x="298" y="129" type="line" smooth="no"/>
      <point x="298" y="0" type="line" smooth="no"/>
      <point x="248" y="0" type="line" smooth="no"/>
      <point x="248" y="129" type="line" smooth="no"/>
      <point x="31" y="128" type="line" smooth="no"/>
      <point x="31" y="207" type="line" smooth="no"/>
    </contour>
    <contour>
      <point x="248" y="431" type="line" smooth="no"/>
      <point x="86" y="192" type="line" smooth="no"/>
      <point x="85" y="179" type="line" smooth="no"/>
      <point x="248" y="179" type="line" smooth="no"/>
    </contour>
  </outline>
</glyph>
<glyph name="five" format="1">
  <advance width="390"/>
  <unicode hex="0035"/>
  <outline>
    <contour>
      <point x="63" y="520" type="line" smooth="no"/>
      <point x="318" y="520" type="line" smooth="no"/>
      <point x="318" y="469" type="line" smooth="no"/>
      <point x="109" y="469" type="line" smooth="no"/>
      <point x="96" y="324" type="line" smooth="no"/>
      <point x="127" y="339"/>
      <point x="172" y="354"/>
      <point x="223" y="346" type="curve" smooth="yes"/>
      <point x="270" y="339"/>
      <point x="306" y="317"/>
      <point x="328" y="286" type="curve" smooth="yes"/>
      <point x="350" y="255"/>
      <point x="359" y="212"/>
      <point x="359" y="173" type="curve" smooth="yes"/>
      <point x="359" y="94"/>
      <point x="312" y="21"/>
      <point x="230" y="4" type="curve" smooth="yes"/>
      <point x="191" y="-4"/>
      <point x="147" y="-4"/>
      <point x="109" y="11" type="curve" smooth="yes"/>
      <point x="71" y="26"/>
      <point x="40" y="57"/>
      <point x="31" y="103" type="curve" smooth="no"/>
      <point x="78" y="113" type="line" smooth="no"/>
      <point x="84" y="84"/>
      <point x="101" y="68"/>
      <point x="127" y="58" type="curve" smooth="yes"/>
      <point x="153" y="48"/>
      <point x="189" y="46"/>
      <point x="220" y="53" type="curve" smooth="yes"/>
      <point x="278" y="65"/>
      <point x="308" y="113"/>
      <point x="308" y="173" type="curve" smooth="yes"/>
      <point x="308" y="204"/>
      <point x="301" y="236"/>
      <point x="287" y="256" type="curve" smooth="yes"/>
      <point x="273" y="276"/>
      <point x="251" y="290"/>
      <point x="215" y="296" type="curve" smooth="yes"/>
      <point x="151" y="302"/>
      <point x="112" y="287"/>
      <point x="75" y="241" type="curve" smooth="no"/>
      <point x="37" y="256" type="line" smooth="no"/>
    </contour>
  </outline>
</glyph>
<glyph name="six" format="1">
  <advance width="390"/>
  <unicode hex="0036"/>
  <outline>
    <contour>
      <point x="161" y="520" type="line" smooth="no"/>
      <point x="216" y="520" type="line" smooth="no"/>
      <point x="128" y="295" type="line" smooth="yes"/>
      <point x="127" y="293"/>
      <point x="122" y="287"/>
      <point x="121" y="285" type="curve" smooth="no"/>
      <point x="142" y="296"/>
      <point x="170" y="305"/>
      <point x="195" y="305" type="curve" smooth="yes"/>
      <point x="283" y="305"/>
      <point x="355" y="236"/>
      <point x="355" y="152" type="curve" smooth="yes"/>
      <point x="355" y="68"/>
      <point x="283" y="0"/>
      <point x="195" y="0" type="curve" smooth="yes"/>
      <point x="113" y="2"/>
      <point x="15" y="66"/>
      <point x="38" y="187" type="curve" smooth="yes"/>
      <point x="46" y="233"/>
      <point x="55" y="249"/>
      <point x="80" y="313" type="curve" smooth="yes"/>
    </contour>
    <contour>
      <point x="195" y="255" type="curve" smooth="yes"/>
      <point x="135" y="255"/>
      <point x="86" y="209"/>
      <point x="86" y="152" type="curve" smooth="yes"/>
      <point x="86" y="95"/>
      <point x="135" y="49"/>
      <point x="195" y="49" type="curve" smooth="yes"/>
      <point x="255" y="49"/>
      <point x="303" y="95"/>
      <point x="303" y="152" type="curve" smooth="yes"/>
      <point x="303" y="209"/>
      <point x="255" y="255"/>
    </contour>
  </outline>
</glyph>
<glyph name="seven" format="1">
  <advance width="390"/>
  <unicode hex="0037"/>
  <outline>
    <contour>
      <point x="30" y="520" type="line" smooth="no"/>
      <point x="360" y="520" type="line" smooth="no"/>
      <point x="360" y="466" type="line" smooth="no"/>
      <point x="103" y="0" type="line" smooth="no"/>
      <point x="46" y="0" type="line" smooth="no"/>
      <point x="304" y="469" type="line" smooth="no"/>
      <point x="30" y="469" type="line" smooth="no"/>
    </contour>
  </outline>
</glyph>
<glyph name="eight" format="1">
  <advance width="390"/>
  <unicode hex="0038"/>
  <outline>
    <contour>
      <point x="195" y="520" type="curve" smooth="yes"/>
      <point x="267" y="520"/>
      <point x="327" y="459"/>
      <point x="327" y="387" type="curve" smooth="yes"/>
      <point x="327" y="345"/>
      <point x="307" y="309"/>
      <point x="277" y="285" type="curve" smooth="no"/>
      <point x="324" y="258"/>
      <point x="356" y="208"/>
      <point x="356" y="152" type="curve" smooth="yes"/>
      <point x="356" y="68"/>
      <point x="283" y="0"/>
      <point x="195" y="0" type="curve" smooth="yes"/>
      <point x="107" y="0"/>
      <point x="34" y="68"/>
      <point x="34" y="152" type="curve" smooth="yes"/>
      <point x="34" y="208"/>
      <point x="66" y="258"/>
      <point x="113" y="285" type="curve" smooth="no"/>
      <point x="83" y="309"/>
      <point x="63" y="346"/>
      <point x="63" y="388" type="curve" smooth="yes"/>
      <point x="63" y="460"/>
      <point x="123" y="520"/>
    </contour>
    <contour>
      <point x="195" y="469" type="curve" smooth="yes"/>
      <point x="150" y="469"/>
      <point x="114" y="433"/>
      <point x="114" y="388" type="curve" smooth="yes"/>
      <point x="114" y="343"/>
      <point x="150" y="304"/>
      <point x="195" y="304" type="curve" smooth="yes"/>
      <point x="240" y="304"/>
      <point x="276" y="343"/>
      <point x="276" y="388" type="curve" smooth="yes"/>
      <point x="276" y="433"/>
      <point x="240" y="469"/>
    </contour>
    <contour>
      <point x="195" y="260" type="curve" smooth="yes"/>
      <point x="135" y="260"/>
      <point x="86" y="217"/>
      <point x="86" y="152" type="curve" smooth="yes"/>
      <point x="86" y="87"/>
      <point x="135" y="49"/>
      <point x="195" y="49" type="curve" smooth="yes"/>
      <point x="255" y="49"/>
      <point x="305" y="87"/>
      <point x="304" y="152" type="curve" smooth="yes"/>
      <point x="303" y="217"/>
      <point x="255" y="260"/>
    </contour>
  </outline>
</glyph>
<glyph name="nine" format="1">
  <advance width="390"/>
  <unicode hex="0039"/>
  <outline>
    <contour>
      <point x="195.778" y="520" type="curve" smooth="yes"/>
      <point x="269.818" y="518.071"/>
      <point x="360.148" y="479.361"/>
      <point x="354.948" y="348.181" type="curve" smooth="yes"/>
      <point x="354.146" y="0" type="line" smooth="no"/>
      <point x="303.536" y="0" type="line" smooth="no"/>
      <point x="304.048" y="259.321" type="line" smooth="no"/>
      <point x="276.588" y="230.641"/>
      <point x="237.488" y="215.481"/>
      <point x="195.778" y="215.481" type="curve" smooth="yes"/>
      <point x="107.278" y="215.491"/>
      <point x="34.8379" y="284.061"/>
      <point x="34.8379" y="367.891" type="curve" smooth="yes"/>
      <point x="34.8379" y="451.721"/>
      <point x="107.278" y="520"/>
    </contour>
    <contour>
      <point x="195.778" y="470.861" type="curve" smooth="yes"/>
      <point x="135.378" y="470.861"/>
      <point x="86.918" y="425.101"/>
      <point x="86.918" y="367.891" type="curve" smooth="yes"/>
      <point x="86.918" y="310.681"/>
      <point x="133.418" y="264.621"/>
      <point x="195.778" y="264.621" type="curve" smooth="yes"/>
      <point x="258.148" y="264.621"/>
      <point x="304.838" y="315.351"/>
      <point x="304.35" y="373.771" type="curve" smooth="yes"/>
      <point x="303.838" y="432.201"/>
      <point x="254.078" y="470.861"/>
    </contour>
  </outline>
</glyph>
<glyph name="colon" format="1">
  <advance width="390"/>
  <unicode hex="003a"/>
  <outline>
    <contour>
      <point x="161" y="341" type="curve" smooth="yes"/>
      <point x="161" y="314"/>
      <point x="140" y="292"/>
      <point x="113" y="292" type="curve" smooth="yes"/>
      <point x="86" y="292"/>
      <point x="65" y="314"/>
      <point x="65" y="341" type="curve" smooth="yes"/>
      <point x="65" y="368"/>
      <point x="86" y="390"/>
      <point x="113" y="390" type="curve" smooth="yes"/>
      <point x="140" y="390"/>
      <point x="161" y="368"/>
    </contour>
    <contour>
      <point x="161" y="49" type="curve" smooth="yes"/>
      <point x="161" y="22"/>
      <point x="140" y="0"/>
      <point x="113" y="0" type="curve" smooth="yes"/>
      <point x="86" y="0"/>
      <point x="65" y="22"/>
      <point x="65" y="49" type="curve" smooth="yes"/>
      <point x="65" y="76"/>
      <point x="86" y="98"/>
      <point x="113" y="98" type="curve" smooth="yes"/>
      <point x="140" y="98"/>
      <point x="161" y="76"/>
    </contour>
  </outline>
</glyph>
<glyph name="semicolon" format="1">
  <advance width="390"/>
  <unicode hex="003b"/>
  <outline>
    <contour>
      <point x="57" y="95" type="line" smooth="no"/>
      <point x="135" y="83" type="line" smooth="no"/>
      <point x="74" y="-58" type="line" smooth="no"/>
      <point x="26" y="-58" type="line" smooth="no"/>
    </contour>
    <contour>
      <point x="141" y="341" type="curve" smooth="yes"/>
      <point x="141" y="314"/>
      <point x="120" y="292"/>
      <point x="93" y="292" type="curve" smooth="yes"/>
      <point x="66" y="292"/>
      <point x="45" y="314"/>
      <point x="45" y="341" type="curve" smooth="yes"/>
      <point x="45" y="368"/>
      <point x="66" y="390"/>
      <point x="93" y="390" type="curve" smooth="yes"/>
      <point x="120" y="390"/>
      <point x="141" y="368"/>
    </contour>
  </outline>
</glyph>
<glyph name="less" format="1">
  <advance width="390"/>
  <unicode hex="003c"/>
  <outline>
    <contour>
      <point x="58" y="167" type="line" smooth="no"/>
      <point x="302" y="0" type="line" smooth="no"/>
      <point x="329" y="41" type="line" smooth="no"/>
      <point x="109" y="194" type="line" smooth="no"/>
      <point x="109" y="200" type="line" smooth="no"/>
      <point x="329" y="349" type="line" smooth="no"/>
      <point x="302" y="390" type="line" smooth="no"/>
      <point x="58" y="223" type="line" smooth="no"/>
    </contour>
  </outline>
</glyph>
<glyph name="equal" format="1">
  <advance width="998"/>
  <unicode hex="003d"/>
  <outline>
    <contour>
      <point x="138" y="371" type="line" smooth="no"/>
      <point x="860" y="371" type="line" smooth="no"/>
      <point x="860" y="236" type="line" smooth="no"/>
      <point x="138" y="236" type="line" smooth="no"/>
    </contour>
    <contour>
      <point x="138" y="740" type="line" smooth="no"/>
      <point x="860" y="740" type="line" smooth="no"/>
      <point x="860" y="604" type="line" smooth="no"/>
      <point x="138" y="604" type="line" smooth="no"/>
    </contour>
  </outline>
</glyph>
<glyph name="greater" format="1">
  <advance width="390"/>
  <unicode hex="003e"/>
  <outline>
    <contour>
      <point x="332" y="167" type="line" smooth="no"/>
      <point x="88" y="0" type="line" smooth="no"/>
      <point x="61" y="41" type="line" smooth="no"/>
      <point x="281" y="194" type="line" smooth="no"/>
      <point x="281" y="200" type="line" smooth="no"/>
      <point x="61" y="349" type="line" smooth="no"/>
      <point x="88" y="390" type="line" smooth="no"/>
      <point x="332" y="223" type="line" smooth="no"/>
    </contour>
  </outline>
</glyph>
<glyph name="question" format="1">
  <advance width="998"/>
  <unicode hex="003f"/>
  <outline>
    <contour>
      <point x="530" y="125" type="curve" smooth="yes"/>
      <point x="530" y="56"/>
      <point x="476" y="0"/>
      <point x="407" y="0" type="curve" smooth="yes"/>
      <point x="338" y="0"/>
      <point x="284" y="56"/>
      <point x="284" y="125" type="curve" smooth="yes"/>
      <point x="284" y="194"/>
      <point x="338" y="251"/>
      <point x="407" y="251" type="curve" smooth="yes"/>
      <point x="476" y="251"/>
      <point x="530" y="194"/>
    </contour>
    <contour>
      <point x="338" y="453" type="line" smooth="no"/>
      <point x="338" y="453"/>
      <point x="325" y="594"/>
      <point x="433" y="707" type="curve" smooth="yes"/>
      <point x="546" y="825"/>
      <point x="584" y="832"/>
      <point x="622" y="893" type="curve" smooth="yes"/>
      <point x="660" y="954"/>
      <point x="660" y="991"/>
      <point x="660" y="1047" type="curve" smooth="yes"/>
      <point x="657" y="1119"/>
      <point x="596" y="1170"/>
      <point x="509" y="1196" type="curve" smooth="yes"/>
      <point x="422" y="1222"/>
      <point x="331" y="1211"/>
      <point x="259" y="1160" type="curve" smooth="yes"/>
      <point x="190" y="1111"/>
      <point x="189" y="1040"/>
      <point x="189" y="996" type="curve" smooth="no"/>
      <point x="72" y="968" type="line" smooth="no"/>
      <point x="41" y="1050"/>
      <point x="87" y="1196"/>
      <point x="182" y="1260" type="curve" smooth="yes"/>
      <point x="277" y="1324"/>
      <point x="425" y="1352"/>
      <point x="548" y="1316" type="curve" smooth="yes"/>
      <point x="668" y="1280"/>
      <point x="763" y="1209"/>
      <point x="791" y="1078" type="curve" smooth="yes"/>
      <point x="811" y="978"/>
      <point x="789" y="908"/>
      <point x="735" y="829" type="curve" smooth="yes"/>
      <point x="679" y="747"/>
      <point x="635" y="734"/>
      <point x="527" y="614" type="curve" smooth="yes"/>
      <point x="483" y="565"/>
      <point x="482" y="502"/>
      <point x="474" y="451" type="curve" smooth="no"/>
    </contour>
  </outline>
</glyph>
<glyph name="at" format="1">
  <advance width="390"/>
  <unicode hex="0040"/>
  <outline>
    <contour>
      <point x="218" y="487.4" type="curve" smooth="yes"/>
      <point x="269.997" y="487.939"/>
      <point x="326" y="457.4"/>
      <point x="345" y="424.4" type="curve" smooth="yes"/>
      <point x="361" y="397.4"/>
      <point x="369" y="375.4"/>
      <point x="369" y="336.4" type="curve" smooth="yes"/>
      <point x="369" y="225" type="line" smooth="no"/>
      <point x="369" y="123"/>
      <point x="286.797" y="108"/>
      <point x="259" y="108" type="curve" smooth="yes"/>
      <point x="203" y="108"/>
      <point x="165" y="138"/>
      <point x="149" y="171" type="curve" smooth="yes"/>
      <point x="133" y="204"/>
      <point x="135.857" y="241.45"/>
      <point x="144" y="264.4" type="curve" smooth="yes"/>
      <point x="177" y="357.4"/>
      <point x="261.53" y="338.4"/>
      <point x="318" y="338.4" type="curve" smooth="no"/>
      <point x="318" y="376.4"/>
      <point x="309" y="385.4"/>
      <point x="301" y="399.4" type="curve" smooth="yes"/>
      <point x="291" y="416.4"/>
      <point x="259" y="436.4"/>
      <point x="218" y="436.4" type="curve" smooth="yes"/>
      <point x="82" y="436.4"/>
      <point x="71" y="301.4"/>
      <point x="71" y="236.4" type="curve" smooth="yes"/>
      <point x="71" y="126.352"/>
      <point x="122" y="46"/>
      <point x="209" y="46" type="curve" smooth="yes"/>
      <point x="252" y="46"/>
      <point x="271" y="51"/>
      <point x="332" y="60" type="curve" smooth="no"/>
      <point x="332" y="14" type="line" smooth="no"/>
      <point x="280" y="6"/>
      <point x="266" y="0"/>
      <point x="207" y="0" type="curve" smooth="yes"/>
      <point x="74.8906" y="0"/>
      <point x="21" y="115.292"/>
      <point x="21" y="247.4" type="curve" smooth="yes"/>
      <point x="21" y="377.4"/>
      <point x="83" y="486"/>
    </contour>
    <contour>
      <point x="318" y="290.4" type="curve" smooth="no"/>
      <point x="280" y="290.4"/>
      <point x="285" y="290.4"/>
      <point x="256" y="289.4" type="curve" smooth="yes"/>
      <point x="229.449" y="288.484"/>
      <point x="198.333" y="275.733"/>
      <point x="191" y="245.4" type="curve" smooth="yes"/>
      <point x="189.062" y="237.385"/>
      <point x="187.549" y="208.793"/>
      <point x="196" y="191" type="curve" smooth="yes"/>
      <point x="202.333" y="177.667"/>
      <point x="217.992" y="158.575"/>
      <point x="260" y="158" type="curve" smooth="yes"/>
      <point x="333" y="157"/>
      <point x="318" y="249"/>
    </contour>
  </outline>
</glyph>
<glyph name="A" format="1">
  <advance width="998"/>
  <unicode hex="0041"/>
  <outline>
    <contour>
      <point x="417" y="1331" type="line"/>
      <point x="581" y="1331" type="line"/>
      <point x="916" y="0" type="line"/>
      <point x="783" y="0" type="line"/>
      <point x="691" y="361" type="line"/>
      <point x="307" y="361" type="line"/>
      <point x="215" y="0" type="line"/>
      <point x="82" y="0" type="line"/>
    </contour>
    <contour>
      <point x="499" y="1134" type="line"/>
      <point x="497" y="1119" type="line"/>
      <point x="340" y="492" type="line"/>
      <point x="658" y="492" type="line"/>
      <point x="502" y="1116" type="line"/>
    </contour>
  </outline>
</glyph>
<glyph name="B" format="1">
  <advance width="390"/>
  <unicode hex="0042"/>
  <outline>
    <contour>
      <point x="30" y="520" type="line" smooth="no"/>
      <point x="30" y="520"/>
      <point x="135" y="521"/>
      <point x="188" y="520" type="curve" smooth="yes"/>
      <point x="236" y="520"/>
      <point x="273" y="504"/>
      <point x="298" y="478" type="curve" smooth="yes"/>
      <point x="323" y="452"/>
      <point x="333" y="418"/>
      <point x="333" y="385" type="curve" smooth="yes"/>
      <point x="333" y="340"/>
      <point x="321" y="303"/>
      <point x="294" y="278" type="curve" smooth="yes"/>
      <point x="290" y="274"/>
      <point x="286" y="273"/>
      <point x="284" y="272" type="curve" smooth="no"/>
      <point x="286" y="271"/>
      <point x="290" y="271"/>
      <point x="294" y="269" type="curve" smooth="yes"/>
      <point x="302" y="264"/>
      <point x="309" y="259"/>
      <point x="316" y="253" type="curve" smooth="yes"/>
      <point x="344" y="227"/>
      <point x="360" y="190"/>
      <point x="360" y="146" type="curve" smooth="yes"/>
      <point x="360" y="103"/>
      <point x="347" y="65"/>
      <point x="321" y="39" type="curve" smooth="yes"/>
      <point x="295" y="13"/>
      <point x="256" y="0"/>
      <point x="212" y="0" type="curve" smooth="yes"/>
      <point x="30" y="0" type="line" smooth="no"/>
    </contour>
    <contour>
      <point x="81" y="470" type="line" smooth="no"/>
      <point x="81" y="294" type="line" smooth="no"/>
      <point x="188" y="294" type="line" smooth="yes"/>
      <point x="222" y="294"/>
      <point x="244" y="301"/>
      <point x="259" y="315" type="curve" smooth="yes"/>
      <point x="274" y="329"/>
      <point x="283" y="350"/>
      <point x="283" y="385" type="curve" smooth="yes"/>
      <point x="283" y="407"/>
      <point x="275" y="428"/>
      <point x="261" y="443" type="curve" smooth="yes"/>
      <point x="247" y="458"/>
      <point x="225" y="470"/>
      <point x="188" y="470" type="curve" smooth="yes"/>
    </contour>
    <contour>
      <point x="80" y="241" type="line" smooth="no"/>
      <point x="80" y="50" type="line" smooth="no"/>
      <point x="212" y="50" type="line" smooth="yes"/>
      <point x="246" y="50"/>
      <point x="270" y="60"/>
      <point x="285" y="75" type="curve" smooth="yes"/>
      <point x="300" y="90"/>
      <point x="310" y="113"/>
      <point x="310" y="146" type="curve" smooth="yes"/>
      <point x="310" y="178"/>
      <point x="300" y="199"/>
      <point x="283" y="215" type="curve" smooth="yes"/>
      <point x="266" y="231"/>
      <point x="239" y="241"/>
      <point x="204" y="241" type="curve" smooth="yes"/>
    </contour>
  </outline>
</glyph>
<glyph name="C" format="1">
  <advance width="390"/>
  <unicode hex="0043"/>
  <outline>
    <contour>
      <point x="204.883" y="522.987" type="curve" smooth="yes"/>
      <point x="233.59" y="522.987"/>
      <point x="264.819" y="516.867"/>
      <point x="292.391" y="497.649" type="curve" smooth="yes"/>
      <point x="319.962" y="478.43"/>
      <point x="342.232" y="446.792"/>
      <point x="356.031" y="401.007" type="curve" smooth="no"/>
      <point x="310.953" y="388.632" type="line" smooth="no"/>
      <point x="299.561" y="426.428"/>
      <point x="280.183" y="444.282"/>
      <point x="263.223" y="456.104" type="curve" smooth="yes"/>
      <point x="246.262" y="467.926"/>
      <point x="226.82" y="472.309"/>
      <point x="204.883" y="472.309" type="curve" smooth="yes"/>
      <point x="164.266" y="472.309"/>
      <point x="128.789" y="450.978"/>
      <point x="101.465" y="390.4" type="curve" smooth="yes"/>
      <point x="89.0986" y="362.983"/>
      <point x="82.1738" y="316.216"/>
      <point x="82.6074" y="269.596" type="curve" smooth="yes"/>
      <point x="83.04" y="222.977"/>
      <point x="90.7549" y="175.768"/>
      <point x="102.054" y="147.321" type="curve" smooth="yes"/>
      <point x="126.254" y="86.3896"/>
      <point x="160.416" y="55.0986"/>
      <point x="211.954" y="55.0986" type="curve" smooth="yes"/>
      <point x="260.01" y="55.0996"/>
      <point x="301.569" y="100.242"/>
      <point x="308.008" y="143.196" type="curve" smooth="no"/>
      <point x="358.097" y="135.831" type="line" smooth="no"/>
      <point x="347.962" y="68.1904"/>
      <point x="289.349" y="4.4209"/>
      <point x="211.954" y="4.4209" type="curve" smooth="yes"/>
      <point x="138.044" y="4.4209"/>
      <point x="83.6338" y="56.1475"/>
      <point x="54.9102" y="128.464" type="curve" smooth="yes"/>
      <point x="39.748" y="166.642"/>
      <point x="32.4102" y="217.518"/>
      <point x="31.9297" y="269.008" type="curve" smooth="yes"/>
      <point x="31.4521" y="320.496"/>
      <point x="37.4717" y="371.708"/>
      <point x="55.2061" y="411.023" type="curve" smooth="yes"/>
      <point x="88.082" y="483.91"/>
      <point x="144.207" y="522.987"/>
    </contour>
  </outline>
</glyph>
<glyph name="D" format="1">
  <advance width="390"/>
  <unicode hex="0044"/>
  <outline>
    <contour>
      <point x="80.9258" y="520" type="line" smooth="yes"/>
      <point x="122.342" y="520"/>
      <point x="156.335" y="521.129"/>
      <point x="196.131" y="512.928" type="curve" smooth="no"/>
      <point x="237.351" y="502.804"/>
      <point x="279.076" y="481.763"/>
      <point x="309.273" y="442.215" type="curve" smooth="yes"/>
      <point x="339.471" y="402.666"/>
      <point x="357.299" y="346.317"/>
      <point x="357.299" y="268.966" type="curve" smooth="yes"/>
      <point x="357.299" y="192.506"/>
      <point x="343.771" y="132.114"/>
      <point x="314.968" y="88.3965" type="curve" smooth="yes"/>
      <point x="286.161" y="44.6826"/>
      <point x="241.915" y="18.3164"/>
      <point x="189.155" y="5.60254" type="curve" smooth="yes"/>
      <point x="140.452" y="-6.13281"/>
      <point x="84.8008" y="-1.19531"/>
      <point x="75.7188" y="-0.290039" type="curve" smooth="no"/>
      <point x="32.7012" y="-0.290039" type="line" smooth="no"/>
      <point x="32.9004" y="520" type="line" smooth="no"/>
    </contour>
    <contour>
      <point x="184.051" y="463.722" type="curve" smooth="yes"/>
      <point x="151.71" y="471.344"/>
      <point x="114.906" y="469.916"/>
      <point x="83.5791" y="469.322" type="curve" smooth="no"/>
      <point x="83.3799" y="50.3877" type="line" smooth="no"/>
      <point x="97.4463" y="49.5059"/>
      <point x="144.506" y="47.1836"/>
      <point x="177.369" y="55.1025" type="curve" smooth="yes"/>
      <point x="221.446" y="65.7236"/>
      <point x="251.349" y="84.2295"/>
      <point x="272.541" y="116.388" type="curve" smooth="yes"/>
      <point x="293.727" y="148.547"/>
      <point x="306.622" y="198.432"/>
      <point x="306.622" y="268.966" type="curve" smooth="yes"/>
      <point x="306.622" y="338.607"/>
      <point x="290.919" y="382.746"/>
      <point x="268.907" y="411.572" type="curve" smooth="yes"/>
      <point x="246.897" y="440.398"/>
      <point x="217.475" y="455.514"/>
    </contour>
  </outline>
</glyph>
<glyph name="E" format="1">
  <advance width="390"/>
  <unicode hex="0045"/>
  <outline>
    <contour>
      <point x="31.7148" y="521.234" type="line" smooth="no"/>
      <point x="358.762" y="521.234" type="line" smooth="no"/>
      <point x="358.762" y="470.703" type="line" smooth="no"/>
      <point x="82.3936" y="470.703" type="line" smooth="no"/>
      <point x="82.3936" y="290.678" type="line" smooth="no"/>
      <point x="308.972" y="290.678" type="line" smooth="no"/>
      <point x="308.972" y="240" type="line" smooth="no"/>
      <point x="82.3936" y="240" type="line" smooth="no"/>
      <point x="81.917" y="50.6768" type="line" smooth="no"/>
      <point x="358.285" y="50.6768" type="line" smooth="no"/>
      <point x="358.285" y="0" type="line" smooth="no"/>
      <point x="31.2383" y="0" type="line" smooth="no"/>
    </contour>
  </outline>
</glyph>
<glyph name="F" format="1">
  <advance width="998"/>
  <unicode hex="0046"/>
  <outline>
    <contour>
      <point x="82" y="1326" type="line" smooth="no"/>
      <point x="916" y="1326" type="line" smooth="no"/>
      <point x="916" y="1198" type="line" smooth="no"/>
      <point x="210" y="1198" type="line" smooth="no"/>
      <point x="210" y="737" type="line" smooth="no"/>
      <point x="860" y="737" type="line" smooth="no"/>
      <point x="860" y="607" type="line" smooth="no"/>
      <point x="210" y="607" type="line" smooth="no"/>
      <point x="210" y="0" type="line" smooth="no"/>
      <point x="82" y="0" type="line" smooth="no"/>
    </contour>
  </outline>
</glyph>
<glyph name="G" format="1">
  <advance width="390"/>
  <unicode hex="0047"/>
  <outline>
    <contour>
      <point x="205.432" y="520" type="curve" smooth="yes"/>
      <point x="278.892" y="519.383"/>
      <point x="333.162" y="477.547"/>
      <point x="356.581" y="398.02" type="curve" smooth="no"/>
      <point x="310.621" y="385.646" type="line" smooth="no"/>
      <point x="296.532" y="434.188"/>
      <point x="262.602" y="469.812"/>
      <point x="205.432" y="469.321" type="curve" smooth="yes"/>
      <point x="164.812" y="469.323"/>
      <point x="129.341" y="447.99"/>
      <point x="102.012" y="387.413" type="curve" smooth="yes"/>
      <point x="89.6416" y="359.996"/>
      <point x="82.7217" y="313.23"/>
      <point x="83.1514" y="266.609" type="curve" smooth="yes"/>
      <point x="83.5918" y="219.99"/>
      <point x="90.9424" y="171.348"/>
      <point x="102.242" y="142.9" type="curve" smooth="yes"/>
      <point x="126.441" y="81.9688"/>
      <point x="160.902" y="50.6777"/>
      <point x="212.432" y="50.6777" type="curve" smooth="yes"/>
      <point x="257.492" y="50.6787"/>
      <point x="296.713" y="90.4678"/>
      <point x="306.722" y="130.82" type="curve" smooth="no"/>
      <point x="306.722" y="213.024" type="line" smooth="no"/>
      <point x="185.032" y="213.024" type="line" smooth="no"/>
      <point x="185.032" y="263.703" type="line" smooth="no"/>
      <point x="357.553" y="263.703" type="line" smooth="no"/>
      <point x="357.553" y="0.883789" type="line" smooth="no"/>
      <point x="316.742" y="0.883789" type="line" smooth="no"/>
      <point x="310.892" y="55.46" type="line" smooth="no"/>
      <point x="295.083" y="28.0859"/>
      <point x="258.902" y="0"/>
      <point x="212.432" y="0" type="curve" smooth="yes"/>
      <point x="138.521" y="0"/>
      <point x="83.8223" y="51.7266"/>
      <point x="55.1025" y="124.043" type="curve" smooth="yes"/>
      <point x="39.9326" y="162.222"/>
      <point x="32.9619" y="214.531"/>
      <point x="32.4717" y="266.02" type="curve" smooth="yes"/>
      <point x="32.002" y="317.508"/>
      <point x="38.3115" y="368.721"/>
      <point x="56.0518" y="408.036" type="curve" smooth="yes"/>
      <point x="88.9219" y="480.923"/>
      <point x="144.751" y="520"/>
    </contour>
  </outline>
</glyph>
<glyph name="H" format="1">
  <advance width="390"/>
  <unicode hex="0048"/>
  <outline>
    <contour>
      <point x="31.1797" y="518.566" type="line" smooth="no"/>
      <point x="81.8594" y="518.566" type="line" smooth="no"/>
      <point x="81.8594" y="288.157" type="line" smooth="no"/>
      <point x="308.14" y="288.157" type="line" smooth="no"/>
      <point x="308.14" y="518.566" type="line" smooth="no"/>
      <point x="358.82" y="518.566" type="line" smooth="no"/>
      <point x="358.82" y="0" type="line" smooth="no"/>
      <point x="308.14" y="0" type="line" smooth="no"/>
      <point x="308.14" y="237.479" type="line" smooth="no"/>
      <point x="81.8594" y="237.479" type="line" smooth="no"/>
      <point x="81.8594" y="0" type="line" smooth="no"/>
      <point x="31.1797" y="0" type="line" smooth="no"/>
    </contour>
  </outline>
</glyph>
<glyph name="I" format="1">
  <advance width="390"/>
  <unicode hex="0049"/>
  <outline>
    <contour>
      <point x="34" y="520" type="line" smooth="no"/>
      <point x="356" y="520" type="line" smooth="no"/>
      <point x="356" y="469" type="line" smooth="no"/>
      <point x="220" y="469" type="line" smooth="no"/>
      <point x="220" y="51" type="line" smooth="no"/>
      <point x="356" y="51" type="line" smooth="no"/>
      <point x="356" y="0" type="line" smooth="no"/>
      <point x="34" y="0" type="line" smooth="no"/>
      <point x="34" y="51" type="line" smooth="no"/>
      <point x="170" y="51" type="line" smooth="no"/>
      <point x="170" y="469" type="line" smooth="no"/>
      <point x="34" y="469" type="line" smooth="no"/>
    </contour>
  </outline>
</glyph>
<glyph name="J" format="1">
  <advance width="390"/>
  <unicode hex="004a"/>
  <outline>
    <contour>
      <point x="91" y="521" type="line" smooth="no"/>
      <point x="359" y="521" type="line" smooth="no"/>
      <point x="359" y="520" type="line" smooth="no"/>
      <point x="359" y="208" type="line" smooth="yes"/>
      <point x="359" y="135"/>
      <point x="340" y="81"/>
      <point x="306" y="47" type="curve" smooth="yes"/>
      <point x="272" y="13"/>
      <point x="227" y="0"/>
      <point x="182" y="0" type="curve" smooth="yes"/>
      <point x="135" y="0"/>
      <point x="96" y="23"/>
      <point x="70" y="51" type="curve" smooth="yes"/>
      <point x="44" y="79"/>
      <point x="31" y="113"/>
      <point x="31" y="145" type="curve" smooth="no"/>
      <point x="81" y="145" type="line" smooth="no"/>
      <point x="81" y="129"/>
      <point x="90" y="104"/>
      <point x="108" y="85" type="curve" smooth="yes"/>
      <point x="126" y="66"/>
      <point x="150" y="50"/>
      <point x="182" y="50" type="curve" smooth="yes"/>
      <point x="217" y="50"/>
      <point x="248" y="59"/>
      <point x="270" y="82" type="curve" smooth="yes"/>
      <point x="292" y="105"/>
      <point x="309" y="143"/>
      <point x="309" y="208" type="curve" smooth="yes"/>
      <point x="309" y="470" type="line" smooth="no"/>
      <point x="91" y="470" type="line" smooth="no"/>
    </contour>
  </outline>
</glyph>
<glyph name="K" format="1">
  <advance width="390"/>
  <unicode hex="004b"/>
  <outline>
    <contour>
      <point x="28" y="520" type="line" smooth="no"/>
      <point x="79" y="520" type="line" smooth="no"/>
      <point x="79" y="225" type="line" smooth="no"/>
      <point x="298" y="520" type="line" smooth="no"/>
      <point x="361" y="520" type="line" smooth="no"/>
      <point x="200" y="303" type="line" smooth="no"/>
      <point x="362" y="0" type="line" smooth="no"/>
      <point x="305" y="0" type="line" smooth="no"/>
      <point x="168" y="259" type="line" smooth="no"/>
      <point x="79" y="140" type="line" smooth="no"/>
      <point x="79" y="0" type="line" smooth="no"/>
      <point x="28" y="0" type="line" smooth="no"/>
    </contour>
  </outline>
</glyph>
<glyph name="L" format="1">
  <advance width="998"/>
  <unicode hex="004c"/>
  <outline>
    <contour>
      <point x="79" y="1331" type="line" smooth="no"/>
      <point x="210" y="1331" type="line" smooth="no"/>
      <point x="210" y="131" type="line" smooth="no"/>
      <point x="909" y="131" type="line" smooth="no"/>
      <point x="909" y="0" type="line" smooth="no"/>
      <point x="79" y="0" type="line" smooth="no"/>
    </contour>
  </outline>
</glyph>
<glyph name="M" format="1">
  <advance width="998"/>
  <unicode hex="004d"/>
  <outline>
    <contour>
      <point x="804" y="1331" type="line" smooth="no"/>
      <point x="927" y="1331" type="line" smooth="no"/>
      <point x="927" y="-5" type="line" smooth="no"/>
      <point x="799" y="-5" type="line" smooth="no"/>
      <point x="799" y="1042" type="line" smooth="no"/>
      <point x="499" y="399" type="line" smooth="no"/>
      <point x="200" y="1037" type="line" smooth="no"/>
      <point x="200" y="0" type="line" smooth="no"/>
      <point x="72" y="0" type="line" smooth="no"/>
      <point x="72" y="1331" type="line" smooth="no"/>
      <point x="195" y="1331" type="line" smooth="no"/>
      <point x="497" y="712" type="line" smooth="no"/>
      <point x="499" y="696" type="line" smooth="no"/>
      <point x="502" y="712" type="line" smooth="no"/>
    </contour>
  </outline>
</glyph>
<glyph name="N" format="1">
  <advance width="390"/>
  <unicode hex="004e"/>
  <outline>
    <contour>
      <point x="79" y="520" type="line" smooth="no"/>
      <point x="308" y="103" type="line" smooth="no"/>
      <point x="308" y="520" type="line" smooth="no"/>
      <point x="359" y="520" type="line" smooth="no"/>
      <point x="359" y="0" type="line" smooth="no"/>
      <point x="311" y="0" type="line" smooth="no"/>
      <point x="82" y="417" type="line" smooth="no"/>
      <point x="82" y="0" type="line" smooth="no"/>
      <point x="31" y="0" type="line" smooth="no"/>
      <point x="31" y="520" type="line" smooth="no"/>
    </contour>
  </outline>
</glyph>
<glyph name="O" format="1">
  <advance width="390"/>
  <unicode hex="004f"/>
  <outline>
    <contour>
      <point x="194.854" y="520.204" type="curve" smooth="yes"/>
      <point x="252.938" y="520.204"/>
      <point x="297.805" y="486.132"/>
      <point x="323.021" y="438" type="curve" smooth="yes"/>
      <point x="348.24" y="389.866"/>
      <point x="358.084" y="327.906"/>
      <point x="358.084" y="260.625" type="curve" smooth="yes"/>
      <point x="358.084" y="193.076"/>
      <point x="346.966" y="130.916"/>
      <point x="321.254" y="82.958" type="curve" smooth="yes"/>
      <point x="295.543" y="34.998"/>
      <point x="251.269" y="1.04785"/>
      <point x="194.853" y="1.04785" type="curve" smooth="yes"/>
      <point x="138.438" y="1.04785"/>
      <point x="94.083" y="34.9941"/>
      <point x="68.4521" y="82.958" type="curve" smooth="yes"/>
      <point x="42.8213" y="130.921"/>
      <point x="31.916" y="193.095"/>
      <point x="31.916" y="260.625" type="curve" smooth="yes"/>
      <point x="31.916" y="327.888"/>
      <point x="41.5479" y="389.862"/>
      <point x="66.6846" y="438" type="curve" smooth="yes"/>
      <point x="91.8213" y="486.136"/>
      <point x="136.77" y="520.204"/>
    </contour>
    <contour>
      <point x="194.854" y="469.525" type="curve" smooth="yes"/>
      <point x="154.825" y="469.525"/>
      <point x="130.898" y="451.069"/>
      <point x="111.766" y="414.429" type="curve" smooth="yes"/>
      <point x="92.6309" y="377.786"/>
      <point x="82.5947" y="322.73"/>
      <point x="82.5947" y="260.626" type="curve" smooth="yes"/>
      <point x="82.5947" y="198.791"/>
      <point x="93.5654" y="143.638"/>
      <point x="113.24" y="106.824" type="curve" smooth="yes"/>
      <point x="132.911" y="70.0088"/>
      <point x="157.288" y="51.7256"/>
      <point x="194.854" y="51.7256" type="curve" smooth="yes"/>
      <point x="232.419" y="51.7256"/>
      <point x="257.024" y="70.0049"/>
      <point x="276.764" y="106.824" type="curve" smooth="yes"/>
      <point x="296.503" y="143.642"/>
      <point x="307.408" y="198.811"/>
      <point x="307.408" y="260.625" type="curve" smooth="yes"/>
      <point x="307.408" y="322.712"/>
      <point x="297.438" y="377.782"/>
      <point x="278.236" y="414.429" type="curve" smooth="yes"/>
      <point x="259.037" y="451.073"/>
      <point x="234.882" y="469.525"/>
    </contour>
  </outline>
</glyph>
<glyph name="P" format="1">
  <advance width="390"/>
  <unicode hex="0050"/>
  <outline>
    <contour>
      <point x="33.8311" y="519.565" type="line" smooth="no"/>
      <point x="33.8311" y="519.565"/>
      <point x="151.21" y="520.21"/>
      <point x="210.321" y="519.86" type="curve" smooth="yes"/>
      <point x="258.54" y="519.86"/>
      <point x="296.998" y="500.957"/>
      <point x="321.4" y="473.19" type="curve" smooth="yes"/>
      <point x="345.803" y="445.427"/>
      <point x="356.169" y="409.747"/>
      <point x="356.169" y="374.781" type="curve" smooth="yes"/>
      <point x="356.169" y="327.196"/>
      <point x="343.466" y="287.963"/>
      <point x="316.978" y="261.346" type="curve" smooth="yes"/>
      <point x="290.497" y="234.727"/>
      <point x="252.717" y="223.042"/>
      <point x="210.321" y="223.042" type="curve" smooth="yes"/>
      <point x="84.5088" y="223.042" type="line" smooth="no"/>
      <point x="84.5088" y="0" type="line" smooth="no"/>
      <point x="33.8311" y="0" type="line" smooth="no"/>
    </contour>
    <contour>
      <point x="84.5088" y="468.182" type="line" smooth="no"/>
      <point x="84.5088" y="273.72" type="line" smooth="no"/>
      <point x="210.321" y="273.72" type="line" smooth="yes"/>
      <point x="243.877" y="273.722"/>
      <point x="266.238" y="282.127"/>
      <point x="281.034" y="296.997" type="curve" smooth="yes"/>
      <point x="295.83" y="311.866"/>
      <point x="305.49" y="335.908"/>
      <point x="305.49" y="374.781" type="curve" smooth="yes"/>
      <point x="305.49" y="399.604"/>
      <point x="298.095" y="423.169"/>
      <point x="283.39" y="439.896" type="curve" smooth="yes"/>
      <point x="268.687" y="456.627"/>
      <point x="246.745" y="468.182"/>
      <point x="210.321" y="468.182" type="curve" smooth="yes"/>
    </contour>
  </outline>
</glyph>
<glyph name="Q" format="1">
  <advance width="390"/>
  <unicode hex="0051"/>
  <outline>
    <contour>
      <point x="195.147" y="520" type="curve" smooth="yes"/>
      <point x="253.232" y="520"/>
      <point x="298.139" y="485.927"/>
      <point x="323.317" y="437.796" type="curve" smooth="yes"/>
      <point x="348.492" y="389.66"/>
      <point x="358.083" y="327.695"/>
      <point x="358.083" y="260.421" type="curve" smooth="yes"/>
      <point x="358.083" y="194.076"/>
      <point x="346.167" y="130.987"/>
      <point x="321.461" y="83.3838" type="curve" smooth="no"/>
      <point x="336.4" y="56.6768"/>
      <point x="346.381" y="28.2344"/>
      <point x="354.754" y="0" type="curve" smooth="no"/>
      <point x="301.719" y="0" type="line" smooth="no"/>
      <point x="297.445" y="13.0293"/>
      <point x="293.238" y="31.5029"/>
      <point x="286.95" y="42.9883" type="curve" smooth="no"/>
      <point x="286.471" y="42.5273"/>
      <point x="278.738" y="34.3936"/>
      <point x="278.249" y="33.9404" type="curve" smooth="yes"/>
      <point x="257.705" y="14.7422"/>
      <point x="234.205" y="0"/>
      <point x="193.147" y="0" type="curve" smooth="yes"/>
      <point x="152.088" y="0"/>
      <point x="104.803" y="21.7119"/>
      <point x="73.3477" y="74.8984" type="curve" smooth="yes"/>
      <point x="41.8945" y="128.085"/>
      <point x="31.917" y="192.884"/>
      <point x="31.917" y="260.421" type="curve" smooth="yes"/>
      <point x="31.917" y="327.693"/>
      <point x="41.8018" y="389.661"/>
      <point x="66.9795" y="437.796" type="curve" smooth="yes"/>
      <point x="92.1572" y="485.929"/>
      <point x="137.063" y="520"/>
    </contour>
    <contour>
      <point x="195.147" y="469.323" type="curve" smooth="yes"/>
      <point x="155.119" y="469.323"/>
      <point x="130.931" y="450.866"/>
      <point x="111.765" y="414.225" type="curve" smooth="yes"/>
      <point x="92.5986" y="377.58"/>
      <point x="82.5947" y="322.519"/>
      <point x="82.5947" y="260.421" type="curve" smooth="yes"/>
      <point x="82.5947" y="198.598"/>
      <point x="92.2656" y="141.412"/>
      <point x="111.972" y="104.598" type="curve" smooth="yes"/>
      <point x="131.678" y="67.7812"/>
      <point x="156.316" y="49.5"/>
      <point x="193.88" y="49.5" type="curve" smooth="yes"/>
      <point x="223.048" y="49.5"/>
      <point x="244.109" y="60.6328"/>
      <point x="261.354" y="82.7939" type="curve" smooth="no"/>
      <point x="243.928" y="105.623"/>
      <point x="227.059" y="123.434"/>
      <point x="190.438" y="142.891" type="curve" smooth="no"/>
      <point x="205.962" y="185.034" type="line" smooth="no"/>
      <point x="239.503" y="171.64"/>
      <point x="265.832" y="152.704"/>
      <point x="286.691" y="130.82" type="curve" smooth="no"/>
      <point x="299.169" y="165.518"/>
      <point x="307.407" y="211.798"/>
      <point x="307.407" y="260.421" type="curve" smooth="yes"/>
      <point x="307.407" y="322.519"/>
      <point x="297.403" y="377.58"/>
      <point x="278.236" y="414.225" type="curve" smooth="yes"/>
      <point x="259.069" y="450.866"/>
      <point x="235.175" y="469.323"/>
    </contour>
  </outline>
</glyph>
<glyph name="R" format="1">
  <advance width="390"/>
  <unicode hex="0052"/>
  <outline>
    <contour>
      <point x="98.21" y="520.293" type="curve" smooth="yes"/>
      <point x="134.943" y="520.406"/>
      <point x="179.145" y="520.475"/>
      <point x="208.7" y="520.295" type="curve" smooth="yes"/>
      <point x="256.919" y="520.296"/>
      <point x="295.377" y="502.391"/>
      <point x="319.779" y="474.626" type="curve" smooth="yes"/>
      <point x="344.186" y="446.861"/>
      <point x="354.548" y="411.181"/>
      <point x="354.548" y="376.216" type="curve" smooth="yes"/>
      <point x="354.548" y="328.632"/>
      <point x="341.845" y="289.397"/>
      <point x="315.36" y="262.78" type="curve" smooth="yes"/>
      <point x="302.791" y="250.147"/>
      <point x="287.521" y="241.042"/>
      <point x="270.575" y="234.789" type="curve" smooth="no"/>
      <point x="357.789" y="1.43359" type="line" smooth="no"/>
      <point x="303.869" y="1.43359" type="line" smooth="no"/>
      <point x="219.898" y="224.476" type="line" smooth="no"/>
      <point x="82.8887" y="224.476" type="line" smooth="no"/>
      <point x="82.8887" y="1.43359" type="line" smooth="no"/>
      <point x="32.2109" y="1.43359" type="line" smooth="no"/>
      <point x="32.2109" y="520" type="line" smooth="no"/>
      <point x="32.2109" y="520"/>
      <point x="61.4766" y="520.181"/>
    </contour>
    <contour>
      <point x="82.8887" y="469.614" type="line" smooth="no"/>
      <point x="82.8887" y="275.153" type="line" smooth="no"/>
      <point x="208.7" y="275.153" type="line" smooth="yes"/>
      <point x="242.256" y="275.155"/>
      <point x="264.618" y="283.559"/>
      <point x="279.414" y="298.43" type="curve" smooth="yes"/>
      <point x="294.212" y="313.3"/>
      <point x="303.869" y="337.341"/>
      <point x="303.869" y="376.215" type="curve" smooth="yes"/>
      <point x="303.869" y="401.038"/>
      <point x="296.477" y="424.602"/>
      <point x="281.771" y="441.329" type="curve" smooth="yes"/>
      <point x="267.068" y="458.059"/>
      <point x="245.127" y="469.614"/>
      <point x="208.7" y="469.614" type="curve" smooth="yes"/>
    </contour>
  </outline>
</glyph>
<glyph name="S" format="1">
  <advance width="390"/>
  <unicode hex="0053"/>
  <outline>
    <contour>
      <point x="199" y="519" type="curve" smooth="yes"/>
      <point x="298" y="519"/>
      <point x="345" y="441"/>
      <point x="345" y="441" type="curve" smooth="no"/>
      <point x="301" y="416" type="line" smooth="no"/>
      <point x="301" y="416"/>
      <point x="272" y="469"/>
      <point x="199" y="469" type="curve" smooth="yes"/>
      <point x="161" y="469"/>
      <point x="135" y="458"/>
      <point x="118" y="442" type="curve" smooth="yes"/>
      <point x="101" y="426"/>
      <point x="93" y="406"/>
      <point x="93" y="379" type="curve" smooth="yes"/>
      <point x="93" y="355"/>
      <point x="105" y="340"/>
      <point x="126" y="326" type="curve" smooth="yes"/>
      <point x="147" y="312"/>
      <point x="176" y="301"/>
      <point x="201" y="291" type="curve" smooth="yes"/>
      <point x="223" y="282"/>
      <point x="257" y="271"/>
      <point x="288" y="254" type="curve" smooth="yes"/>
      <point x="319" y="237"/>
      <point x="349" y="209"/>
      <point x="355" y="167" type="curve" smooth="yes"/>
      <point x="360" y="129"/>
      <point x="352" y="88"/>
      <point x="326" y="55" type="curve" smooth="yes"/>
      <point x="300" y="22"/>
      <point x="256" y="0"/>
      <point x="198" y="0" type="curve" smooth="yes"/>
      <point x="140" y="0"/>
      <point x="98" y="20"/>
      <point x="72" y="41" type="curve" smooth="yes"/>
      <point x="46" y="62"/>
      <point x="33" y="85"/>
      <point x="33" y="85" type="curve" smooth="no"/>
      <point x="78" y="108" type="line" smooth="no"/>
      <point x="78" y="108"/>
      <point x="84" y="96"/>
      <point x="103" y="81" type="curve" smooth="yes"/>
      <point x="122" y="66"/>
      <point x="151" y="51"/>
      <point x="198" y="51" type="curve" smooth="yes"/>
      <point x="244" y="51"/>
      <point x="270" y="66"/>
      <point x="286" y="86" type="curve" smooth="yes"/>
      <point x="302" y="106"/>
      <point x="309" y="134"/>
      <point x="305" y="160" type="curve" smooth="yes"/>
      <point x="302" y="182"/>
      <point x="287" y="196"/>
      <point x="263" y="210" type="curve" smooth="yes"/>
      <point x="239" y="224"/>
      <point x="208" y="233"/>
      <point x="182" y="244" type="curve" smooth="yes"/>
      <point x="158" y="254"/>
      <point x="125" y="265"/>
      <point x="97" y="285" type="curve" smooth="yes"/>
      <point x="69" y="305"/>
      <point x="43" y="336"/>
      <point x="42" y="378" type="curve" smooth="yes"/>
      <point x="41" y="417"/>
      <point x="56" y="453"/>
      <point x="84" y="479" type="curve" smooth="yes"/>
      <point x="112" y="505"/>
      <point x="151" y="519"/>
    </contour>
  </outline>
</glyph>
<glyph name="T" format="1">
  <advance width="390"/>
  <unicode hex="0054"/>
  <outline>
    <contour>
      <point x="29.8555" y="519.861" type="line" smooth="no"/>
      <point x="360.145" y="519.861" type="line" smooth="no"/>
      <point x="360.145" y="468.182" type="line" smooth="no"/>
      <point x="220.484" y="468.182" type="line" smooth="no"/>
      <point x="220.484" y="0" type="line" smooth="no"/>
      <point x="169.805" y="0" type="line" smooth="no"/>
      <point x="169.805" y="468.182" type="line" smooth="no"/>
      <point x="29.8555" y="468.182" type="line" smooth="no"/>
    </contour>
  </outline>
</glyph>
<glyph name="U" format="1">
  <advance width="390"/>
  <unicode hex="0055"/>
  <outline>
    <contour>
      <point x="32" y="520" type="line" smooth="no"/>
      <point x="83" y="520" type="line" smooth="no"/>
      <point x="83" y="222" type="line" smooth="yes"/>
      <point x="83" y="160"/>
      <point x="94" y="116"/>
      <point x="112" y="90" type="curve" smooth="yes"/>
      <point x="130" y="64"/>
      <point x="154" y="51"/>
      <point x="195" y="51" type="curve" smooth="yes"/>
      <point x="236" y="51"/>
      <point x="260" y="64"/>
      <point x="278" y="90" type="curve" smooth="yes"/>
      <point x="296" y="116"/>
      <point x="307" y="160"/>
      <point x="307" y="222" type="curve" smooth="yes"/>
      <point x="307" y="520" type="line" smooth="no"/>
      <point x="358" y="520" type="line" smooth="no"/>
      <point x="358" y="222" type="line" smooth="yes"/>
      <point x="358" y="154"/>
      <point x="347" y="101"/>
      <point x="320" y="61" type="curve" smooth="yes"/>
      <point x="293" y="21"/>
      <point x="248" y="0"/>
      <point x="195" y="0" type="curve" smooth="yes"/>
      <point x="142" y="0"/>
      <point x="97" y="21"/>
      <point x="70" y="61" type="curve" smooth="yes"/>
      <point x="43" y="101"/>
      <point x="32" y="154"/>
      <point x="32" y="222" type="curve" smooth="yes"/>
    </contour>
  </outline>
</glyph>
<glyph name="V" format="1">
  <advance width="390"/>
  <unicode hex="0056"/>
  <outline>
    <contour>
      <point x="33.2451" y="519.566" type="line" smooth="no"/>
      <point x="85.0957" y="519.566" type="line" smooth="no"/>
      <point x="193.735" y="74.2451" type="line" smooth="no"/>
      <point x="194.706" y="66.1201" type="line" smooth="no"/>
      <point x="195.615" y="74.2451" type="line" smooth="no"/>
      <point x="304.604" y="519.566" type="line" smooth="no"/>
      <point x="356.755" y="519.566" type="line" smooth="no"/>
      <point x="227.115" y="0" type="line" smooth="no"/>
      <point x="162.595" y="0" type="line" smooth="no"/>
    </contour>
  </outline>
</glyph>
<glyph name="W" format="1">
  <advance width="998"/>
  <unicode hex="0057"/>
  <outline>
    <contour>
      <point x="82" y="1331" type="line"/>
      <point x="212" y="1331" type="line"/>
      <point x="279" y="289" type="line"/>
      <point x="430" y="776" type="line"/>
      <point x="499" y="1014" type="line"/>
      <point x="568" y="778" type="line"/>
      <point x="719" y="289" type="line"/>
      <point x="786" y="1331" type="line"/>
      <point x="916" y="1331" type="line"/>
      <point x="832" y="0" type="line"/>
      <point x="676" y="0" type="line"/>
      <point x="504" y="568" type="line"/>
      <point x="499" y="607" type="line"/>
      <point x="494" y="568" type="line"/>
      <point x="323" y="0" type="line"/>
      <point x="166" y="0" type="line"/>
    </contour>
  </outline>
</glyph>
<glyph name="X" format="1">
  <advance width="390"/>
  <unicode hex="0058"/>
  <outline>
    <contour>
      <point x="36" y="520" type="line" smooth="no"/>
      <point x="93" y="520" type="line" smooth="no"/>
      <point x="195" y="308" type="line" smooth="no"/>
      <point x="297" y="520" type="line" smooth="no"/>
      <point x="354" y="520" type="line" smooth="no"/>
      <point x="224" y="261" type="line" smooth="no"/>
      <point x="356" y="0" type="line" smooth="no"/>
      <point x="299" y="0" type="line" smooth="no"/>
      <point x="195" y="214" type="line" smooth="no"/>
      <point x="91" y="0" type="line" smooth="no"/>
      <point x="34" y="0" type="line" smooth="no"/>
      <point x="167" y="261" type="line" smooth="no"/>
    </contour>
  </outline>
</glyph>
<glyph name="Y" format="1">
  <advance width="390"/>
  <unicode hex="0059"/>
  <outline>
    <contour>
      <point x="35" y="521" type="line" smooth="no"/>
      <point x="90" y="521" type="line" smooth="no"/>
      <point x="195" y="286" type="line" smooth="no"/>
      <point x="299" y="521" type="line" smooth="no"/>
      <point x="355" y="521" type="line" smooth="no"/>
      <point x="220" y="230" type="line" smooth="no"/>
      <point x="220" y="0" type="line" smooth="no"/>
      <point x="170" y="0" type="line" smooth="no"/>
      <point x="170" y="230" type="line" smooth="no"/>
    </contour>
  </outline>
</glyph>
<glyph name="Z" format="1">
  <advance width="390"/>
  <unicode hex="005a"/>
  <outline>
    <contour>
      <point x="37" y="520" type="line" smooth="no"/>
      <point x="352" y="520" type="line" smooth="no"/>
      <point x="352" y="466" type="line" smooth="no"/>
      <point x="91" y="51" type="line" smooth="no"/>
      <point x="360" y="51" type="line" smooth="no"/>
      <point x="360" y="0" type="line" smooth="no"/>
      <point x="30" y="0" type="line" smooth="no"/>
      <point x="30" y="50" type="line" smooth="no"/>
      <point x="294" y="468" type="line" smooth="no"/>
      <point x="37" y="468" type="line" smooth="no"/>
    </contour>
  </outline>
</glyph>
<glyph name="bracketleft" format="1">
  <advance width="998"/>
  <unicode hex="005B"/>
  <outline>
    <contour>
      <point x="225" y="1500" type="line"/>
      <point x="225" y="-162" type="line"/>
      <point x="704" y="-162" type="line"/>
      <point x="704" y="-31" type="line"/>
      <point x="356" y="-31" type="line"/>
      <point x="356" y="1367" type="line"/>
      <point x="706" y="1367" type="line"/>
      <point x="706" y="1500" type="line"/>
    </contour>
  </outline>
</glyph>
<glyph name="backslash" format="1">
  <advance width="390"/>
  <unicode hex="005c"/>
  <outline>
    <contour>
      <point x="390" y="-50" type="line" smooth="no"/>
      <point x="80" y="520" type="line" smooth="no"/>
      <point x="21" y="520" type="line" smooth="no"/>
      <point x="331" y="-50" type="line" smooth="no"/>
    </contour>
  </outline>
</glyph>
<glyph name="bracketright" format="1">
  <advance width="998"/>
  <unicode hex="005d"/>
  <outline>
    <contour>
      <point x="773" y="1500" type="line" smooth="no"/>
      <point x="773" y="-162" type="line" smooth="no"/>
      <point x="294" y="-162" type="line" smooth="no"/>
      <point x="294" y="-31" type="line" smooth="no"/>
      <point x="642" y="-31" type="line" smooth="no"/>
      <point x="642" y="1367" type="line" smooth="no"/>
      <point x="292" y="1367" type="line" smooth="no"/>
      <point x="292" y="1500" type="line" smooth="no"/>
    </contour>
  </outline>
</glyph>
<glyph name="asciicircum" format="1">
  <advance width="998"/>
  <unicode hex="005e"/>
  <outline>
    <contour>
      <point x="498" y="1303" type="line" smooth="no"/>
      <point x="764" y="1038.8" type="line" smooth="no"/>
      <point x="902" y="1038.8" type="line" smooth="no"/>
      <point x="570" y="1413" type="line" smooth="no"/>
      <point x="419" y="1413" type="line" smooth="no"/>
      <point x="78" y="1038.8" type="line" smooth="no"/>
      <point x="216" y="1038.8" type="line" smooth="no"/>
      <point x="486" y="1303" type="line" smooth="no"/>
    </contour>
  </outline>
</glyph>
<glyph name="underscore" format="1">
  <advance width="998"/>
  <unicode hex="005F"/>
  <outline>
    <contour>
      <point x="898" y="-208" type="line"/>
      <point x="100" y="-208" type="line"/>
      <point x="100" y="-77" type="line"/>
      <point x="898" y="-77" type="line"/>
    </contour>
  </outline>
</glyph>
<glyph name="grave" format="1">
  <advance width="998"/>
  <unicode hex="0060"/>
  <outline>
    <contour>
      <point x="613" y="1083.2" type="line"/>
      <point x="460" y="1083.2" type="line"/>
      <point x="238" y="1266.2" type="line"/>
      <point x="363" y="1331.2" type="line"/>
    </contour>
  </outline>
</glyph>
<glyph name="a" format="1">
  <advance width="390"/>
  <unicode hex="0061"/>
  <outline>
    <contour>
      <point x="80.001" y="348.4" type="curve" smooth="yes"/>
      <point x="100.001" y="372.4"/>
      <point x="136" y="390.4"/>
      <point x="188" y="390.4" type="curve" smooth="yes"/>
      <point x="240" y="390.4"/>
      <point x="277" y="370.4"/>
      <point x="296" y="337.4" type="curve" smooth="yes"/>
      <point x="312" y="310.4"/>
      <point x="309.531" y="263"/>
      <point x="309.531" y="224" type="curve" smooth="yes"/>
      <point x="309.531" y="97" type="line" smooth="no"/>
      <point x="309.531" y="97"/>
      <point x="307.531" y="84"/>
      <point x="312.531" y="73" type="curve" smooth="yes"/>
      <point x="317.531" y="62"/>
      <point x="323.531" y="43"/>
      <point x="349.531" y="41" type="curve" smooth="no"/>
      <point x="349.531" y="-1" type="line" smooth="no"/>
      <point x="296.531" y="2"/>
      <point x="278.531" y="34"/>
      <point x="278.531" y="34" type="curve" smooth="no"/>
      <point x="276.531" y="34" type="line" smooth="no"/>
      <point x="276.531" y="34"/>
      <point x="239.531" y="0"/>
      <point x="162.531" y="0" type="curve" smooth="yes"/>
      <point x="106.531" y="0"/>
      <point x="68.5322" y="30"/>
      <point x="52.5322" y="63" type="curve" smooth="yes"/>
      <point x="36.5322" y="96"/>
      <point x="38.5322" y="126"/>
      <point x="46.5322" y="149" type="curve" smooth="yes"/>
      <point x="62.5322" y="194"/>
      <point x="99.5322" y="217"/>
      <point x="137.531" y="224" type="curve" smooth="yes"/>
      <point x="157.531" y="227"/>
      <point x="177.531" y="227"/>
      <point x="198.531" y="227" type="curve" smooth="yes"/>
      <point x="217.531" y="227"/>
      <point x="238.531" y="226"/>
      <point x="258.531" y="226" type="curve" smooth="no"/>
      <point x="258.531" y="264"/>
      <point x="260.5" y="298"/>
      <point x="252" y="312.4" type="curve" smooth="yes"/>
      <point x="241.974" y="329.385"/>
      <point x="229" y="339.4"/>
      <point x="188" y="339.4" type="curve" smooth="yes"/>
      <point x="147" y="339.4"/>
      <point x="130" y="327.4"/>
      <point x="119" y="315.4" type="curve" smooth="yes"/>
      <point x="108" y="303.4"/>
      <point x="104.001" y="286.4"/>
      <point x="102.001" y="272.4" type="curve" smooth="no"/>
      <point x="55.001" y="280.4" type="line" smooth="no"/>
      <point x="55.001" y="296.4"/>
      <point x="60.001" y="324.4"/>
    </contour>
    <contour>
      <point x="243.531" y="72" type="curve" smooth="yes"/>
      <point x="254.531" y="81"/>
      <point x="256.531" y="89"/>
      <point x="257.531" y="93" type="curve" smooth="yes"/>
      <point x="258.531" y="97"/>
      <point x="258.531" y="175"/>
      <point x="258.531" y="175" type="curve" smooth="no"/>
      <point x="220.531" y="175"/>
      <point x="183.531" y="179"/>
      <point x="145.531" y="174" type="curve" smooth="no"/>
      <point x="116.531" y="169"/>
      <point x="103.531" y="163"/>
      <point x="93.5322" y="132" type="curve" smooth="yes"/>
      <point x="91.5322" y="124"/>
      <point x="91.5322" y="103"/>
      <point x="99.5322" y="85" type="curve" smooth="yes"/>
      <point x="107.531" y="67"/>
      <point x="121.531" y="52"/>
      <point x="163.531" y="51" type="curve" smooth="yes"/>
      <point x="207.531" y="50"/>
      <point x="231.531" y="61"/>
    </contour>
  </outline>
</glyph>
<glyph name="b" format="1">
  <advance width="390"/>
  <unicode hex="0062"/>
  <outline>
    <contour>
      <point x="36" y="520" type="line" smooth="no"/>
      <point x="86" y="520" type="line" smooth="no"/>
      <point x="86" y="344" type="line" smooth="no"/>
      <point x="111" y="371"/>
      <point x="148" y="390"/>
      <point x="194" y="390" type="curve" smooth="yes"/>
      <point x="250" y="390"/>
      <point x="294" y="360"/>
      <point x="318" y="322" type="curve" smooth="yes"/>
      <point x="342" y="284"/>
      <point x="354" y="237"/>
      <point x="354" y="195" type="curve" smooth="yes"/>
      <point x="354" y="153"/>
      <point x="342" y="106"/>
      <point x="318" y="68" type="curve" smooth="yes"/>
      <point x="294" y="30"/>
      <point x="251" y="0"/>
      <point x="194" y="0" type="curve" smooth="yes"/>
      <point x="148" y="0"/>
      <point x="111" y="19"/>
      <point x="86" y="46" type="curve" smooth="no"/>
      <point x="76" y="0" type="line" smooth="no"/>
      <point x="36" y="0" type="line" smooth="no"/>
      <point x="36" y="195" type="line" smooth="no"/>
    </contour>
    <contour>
      <point x="194" y="339" type="curve" smooth="yes"/>
      <point x="153" y="339"/>
      <point x="131" y="322"/>
      <point x="114" y="295" type="curve" smooth="yes"/>
      <point x="97" y="268"/>
      <point x="86" y="230"/>
      <point x="86" y="195" type="curve" smooth="yes"/>
      <point x="86" y="160"/>
      <point x="97" y="122"/>
      <point x="114" y="95" type="curve" smooth="yes"/>
      <point x="131" y="68"/>
      <point x="153" y="51"/>
      <point x="194" y="51" type="curve" smooth="yes"/>
      <point x="235" y="51"/>
      <point x="259" y="68"/>
      <point x="276" y="95" type="curve" smooth="yes"/>
      <point x="293" y="122"/>
      <point x="302" y="160"/>
      <point x="302" y="195" type="curve" smooth="yes"/>
      <point x="302" y="230"/>
      <point x="293" y="268"/>
      <point x="276" y="295" type="curve" smooth="yes"/>
      <point x="259" y="322"/>
      <point x="235" y="339"/>
    </contour>
  </outline>
</glyph>
<glyph name="c" format="1">
  <advance width="390"/>
  <unicode hex="0063"/>
  <outline>
    <contour>
      <point x="198" y="390" type="curve" smooth="yes"/>
      <point x="238" y="390"/>
      <point x="272" y="376"/>
      <point x="296" y="353" type="curve" smooth="yes"/>
      <point x="320" y="330"/>
      <point x="333" y="298"/>
      <point x="336" y="264" type="curve" smooth="no"/>
      <point x="286" y="260" type="line" smooth="no"/>
      <point x="284" y="284"/>
      <point x="274" y="304"/>
      <point x="260" y="317" type="curve" smooth="yes"/>
      <point x="246" y="330"/>
      <point x="227" y="339"/>
      <point x="198" y="339" type="curve" smooth="yes"/>
      <point x="157" y="339"/>
      <point x="138" y="323"/>
      <point x="122" y="296" type="curve" smooth="yes"/>
      <point x="106" y="269"/>
      <point x="100" y="231"/>
      <point x="100" y="195" type="curve" smooth="yes"/>
      <point x="100" y="160"/>
      <point x="109" y="122"/>
      <point x="126" y="95" type="curve" smooth="yes"/>
      <point x="143" y="68"/>
      <point x="167" y="51"/>
      <point x="208" y="51" type="curve" smooth="yes"/>
      <point x="236" y="51"/>
      <point x="253" y="59"/>
      <point x="266" y="71" type="curve" smooth="yes"/>
      <point x="279" y="83"/>
      <point x="287" y="101"/>
      <point x="290" y="122" type="curve" smooth="no"/>
      <point x="340" y="114" type="line" smooth="no"/>
      <point x="335" y="85"/>
      <point x="322" y="56"/>
      <point x="300" y="35" type="curve" smooth="yes"/>
      <point x="278" y="14"/>
      <point x="246" y="0"/>
      <point x="208" y="0" type="curve" smooth="yes"/>
      <point x="151" y="0"/>
      <point x="108" y="30"/>
      <point x="84" y="68" type="curve" smooth="yes"/>
      <point x="60" y="106"/>
      <point x="50" y="153"/>
      <point x="50" y="195" type="curve" smooth="yes"/>
      <point x="50" y="237"/>
      <point x="56" y="284"/>
      <point x="78" y="322" type="curve" smooth="yes"/>
      <point x="100" y="360"/>
      <point x="142" y="390"/>
    </contour>
  </outline>
</glyph>
<glyph name="d" format="1">
  <advance width="390"/>
  <unicode hex="0064"/>
  <outline>
    <contour>
      <point x="303" y="520" type="line" smooth="no"/>
      <point x="353" y="520" type="line" smooth="no"/>
      <point x="353" y="0" type="line" smooth="no"/>
      <point x="312" y="0" type="line" smooth="no"/>
      <point x="303" y="46" type="line" smooth="no"/>
      <point x="278" y="19"/>
      <point x="241" y="0"/>
      <point x="195" y="0" type="curve" smooth="yes"/>
      <point x="138" y="0"/>
      <point x="95" y="30"/>
      <point x="71" y="68" type="curve" smooth="yes"/>
      <point x="47" y="106"/>
      <point x="37" y="153"/>
      <point x="37" y="195" type="curve" smooth="yes"/>
      <point x="37" y="237"/>
      <point x="47" y="284"/>
      <point x="71" y="322" type="curve" smooth="yes"/>
      <point x="95" y="360"/>
      <point x="139" y="390"/>
      <point x="195" y="390" type="curve" smooth="yes"/>
      <point x="241" y="390"/>
      <point x="278" y="372"/>
      <point x="303" y="344" type="curve" smooth="no"/>
    </contour>
    <contour>
      <point x="195" y="339" type="curve" smooth="yes"/>
      <point x="154" y="339"/>
      <point x="131" y="322"/>
      <point x="114" y="295" type="curve" smooth="yes"/>
      <point x="97" y="268"/>
      <point x="88" y="230"/>
      <point x="88" y="195" type="curve" smooth="yes"/>
      <point x="88" y="160"/>
      <point x="96" y="122"/>
      <point x="113" y="95" type="curve" smooth="yes"/>
      <point x="130" y="68"/>
      <point x="154" y="51"/>
      <point x="195" y="51" type="curve" smooth="yes"/>
      <point x="236" y="51"/>
      <point x="259" y="68"/>
      <point x="276" y="95" type="curve" smooth="yes"/>
      <point x="293" y="122"/>
      <point x="303" y="160"/>
      <point x="303" y="195" type="curve" smooth="yes"/>
      <point x="303" y="230"/>
      <point x="293" y="268"/>
      <point x="276" y="295" type="curve" smooth="yes"/>
      <point x="259" y="322"/>
      <point x="236" y="339"/>
    </contour>
  </outline>
</glyph>
<glyph name="e" format="1">
  <advance width="390"/>
  <unicode hex="0065"/>
  <outline>
    <contour>
      <point x="98" y="174" type="line" smooth="no"/>
      <point x="100" y="141"/>
      <point x="107" y="110"/>
      <point x="121" y="90" type="curve" smooth="yes"/>
      <point x="137" y="66"/>
      <point x="159" y="53"/>
      <point x="194" y="51" type="curve" smooth="yes"/>
      <point x="194" y="51" type="line" smooth="yes"/>
      <point x="226" y="51"/>
      <point x="246" y="60"/>
      <point x="260" y="72" type="curve" smooth="yes"/>
      <point x="274" y="84"/>
      <point x="282" y="99"/>
      <point x="287" y="115" type="curve" smooth="no"/>
      <point x="336" y="100" type="line" smooth="no"/>
      <point x="329" y="78"/>
      <point x="315" y="53"/>
      <point x="292" y="33" type="curve" smooth="yes"/>
      <point x="269" y="13"/>
      <point x="236" y="0"/>
      <point x="194" y="0" type="curve" smooth="yes"/>
      <point x="193" y="0" type="line" smooth="no"/>
      <point x="193" y="0" type="line" smooth="no"/>
      <point x="143" y="2"/>
      <point x="103" y="26"/>
      <point x="79" y="62" type="curve" smooth="yes"/>
      <point x="55" y="98"/>
      <point x="46" y="142"/>
      <point x="46" y="189" type="curve" smooth="yes"/>
      <point x="46" y="235"/>
      <point x="52" y="284"/>
      <point x="74" y="322" type="curve" smooth="yes"/>
      <point x="96" y="360"/>
      <point x="137" y="388"/>
      <point x="193" y="389" type="curve" smooth="no"/>
      <point x="194" y="389" type="line" smooth="no"/>
      <point x="194" y="389" type="line" smooth="yes"/>
      <point x="232" y="388"/>
      <point x="271" y="379"/>
      <point x="300" y="348" type="curve" smooth="yes"/>
      <point x="329" y="317"/>
      <point x="344" y="267"/>
      <point x="343" y="198" type="curve" smooth="yes"/>
      <point x="343" y="174" type="line" smooth="no"/>
    </contour>
    <contour>
      <point x="177" y="336" type="curve" smooth="yes"/>
      <point x="141" y="330"/>
      <point x="104" y="295"/>
      <point x="100" y="224" type="curve" smooth="no"/>
      <point x="291" y="224" type="line" smooth="no"/>
      <point x="289" y="270"/>
      <point x="280" y="293"/>
      <point x="264" y="313" type="curve" smooth="yes"/>
      <point x="248" y="333"/>
      <point x="213" y="342"/>
    </contour>
  </outline>
</glyph>
<glyph name="f" format="1">
  <advance width="390"/>
  <unicode hex="0066"/>
  <outline>
    <contour>
      <point x="234" y="519" type="curve" smooth="no"/>
      <point x="287" y="518"/>
      <point x="336" y="487"/>
      <point x="354" y="419" type="curve" smooth="no"/>
      <point x="317" y="404" type="line" smooth="no"/>
      <point x="299" y="457"/>
      <point x="255" y="474"/>
      <point x="219" y="468" type="curve" smooth="yes"/>
      <point x="184" y="462"/>
      <point x="163" y="438"/>
      <point x="169" y="392" type="curve" smooth="yes"/>
      <point x="172" y="368"/>
      <point x="176" y="351"/>
      <point x="178" y="335" type="curve" smooth="no"/>
      <point x="299" y="335" type="line" smooth="no"/>
      <point x="299" y="284" type="line" smooth="no"/>
      <point x="183" y="284" type="line" smooth="no"/>
      <point x="183" y="0" type="line" smooth="no"/>
      <point x="132" y="0" type="line" smooth="no"/>
      <point x="132" y="284" type="line" smooth="no"/>
      <point x="36" y="284" type="line" smooth="no"/>
      <point x="36" y="335" type="line" smooth="no"/>
      <point x="126" y="335" type="line" smooth="no"/>
      <point x="124" y="350"/>
      <point x="122" y="364"/>
      <point x="120" y="385" type="curve" smooth="yes"/>
      <point x="114" y="439"/>
      <point x="134" y="515"/>
    </contour>
  </outline>
</glyph>
<glyph name="g" format="1">
  <advance width="390"/>
  <unicode hex="0067"/>
  <outline>
    <contour>
      <point x="357" y="416" type="line" smooth="no"/>
      <point x="357" y="408"/>
      <point x="356" y="401"/>
      <point x="354" y="393" type="curve" smooth="yes"/>
      <point x="347" y="374"/>
      <point x="333" y="356"/>
      <point x="305" y="348" type="curve" smooth="no"/>
      <point x="332" y="325"/>
      <point x="337" y="280"/>
      <point x="337" y="259" type="curve" smooth="yes"/>
      <point x="337" y="205"/>
      <point x="286" y="135"/>
      <point x="195" y="134" type="curve" smooth="yes"/>
      <point x="178" y="134"/>
      <point x="164" y="137"/>
      <point x="153" y="136" type="curve" smooth="yes"/>
      <point x="126" y="133"/>
      <point x="116" y="122"/>
      <point x="114" y="109" type="curve" smooth="yes"/>
      <point x="111" y="91"/>
      <point x="121" y="67"/>
      <point x="190" y="67" type="curve" smooth="yes"/>
      <point x="333" y="67"/>
      <point x="357" y="6"/>
      <point x="357" y="-32" type="curve" smooth="yes"/>
      <point x="357" y="-130"/>
      <point x="254" y="-131"/>
      <point x="195" y="-131" type="curve" smooth="yes"/>
      <point x="146" y="-131"/>
      <point x="32" y="-131"/>
      <point x="32" y="-34" type="curve" smooth="no"/>
      <point x="31" y="8"/>
      <point x="66" y="42"/>
      <point x="108" y="50" type="curve" smooth="no"/>
      <point x="108" y="51" type="line" smooth="no"/>
      <point x="66" y="62"/>
      <point x="65" y="88"/>
      <point x="66" y="104" type="curve" smooth="yes"/>
      <point x="68" y="147"/>
      <point x="108" y="160"/>
      <point x="108" y="160" type="curve" smooth="no"/>
      <point x="108" y="161" type="line" smooth="no"/>
      <point x="108" y="161"/>
      <point x="50" y="199"/>
      <point x="50" y="259" type="curve" smooth="yes"/>
      <point x="50" y="364"/>
      <point x="147" y="390"/>
      <point x="194" y="390" type="curve" smooth="yes"/>
      <point x="232" y="390"/>
      <point x="250" y="384"/>
      <point x="270" y="375" type="curve" smooth="no"/>
      <point x="287" y="377"/>
      <point x="305" y="391"/>
      <point x="306" y="416" type="curve" smooth="no"/>
    </contour>
    <contour>
      <point x="194" y="341" type="curve" smooth="yes"/>
      <point x="144" y="341"/>
      <point x="100" y="315"/>
      <point x="100" y="259" type="curve" smooth="yes"/>
      <point x="100" y="236"/>
      <point x="119" y="184"/>
      <point x="195" y="184" type="curve" smooth="yes"/>
      <point x="268" y="184"/>
      <point x="287" y="237"/>
      <point x="287" y="259" type="curve" smooth="yes"/>
      <point x="287" y="323"/>
      <point x="244" y="341"/>
    </contour>
    <contour>
      <point x="194" y="22" type="curve" smooth="yes"/>
      <point x="151" y="22"/>
      <point x="83" y="18"/>
      <point x="83" y="-33" type="curve" smooth="yes"/>
      <point x="83" y="-84"/>
      <point x="156" y="-89"/>
      <point x="195" y="-89" type="curve" smooth="yes"/>
      <point x="234" y="-89"/>
      <point x="306" y="-85"/>
      <point x="306" y="-34" type="curve" smooth="yes"/>
      <point x="306" y="17"/>
      <point x="237" y="22"/>
    </contour>
  </outline>
</glyph>
<glyph name="h" format="1">
  <advance width="390"/>
  <unicode hex="0068"/>
  <outline>
    <contour>
      <point x="46" y="520" type="line" smooth="no"/>
      <point x="96" y="520" type="line" smooth="no"/>
      <point x="96" y="322" type="line" smooth="no"/>
      <point x="107" y="357"/>
      <point x="158" y="388"/>
      <point x="204" y="388" type="curve" smooth="yes"/>
      <point x="258" y="388"/>
      <point x="285" y="369"/>
      <point x="310" y="336" type="curve" smooth="yes"/>
      <point x="328" y="312"/>
      <point x="344" y="263"/>
      <point x="344" y="221" type="curve" smooth="yes"/>
      <point x="344" y="0" type="line" smooth="no"/>
      <point x="292" y="0" type="line" smooth="no"/>
      <point x="292" y="221" type="line" smooth="yes"/>
      <point x="292" y="256"/>
      <point x="285" y="275"/>
      <point x="273" y="298" type="curve" smooth="yes"/>
      <point x="265" y="313"/>
      <point x="247" y="336"/>
      <point x="204" y="336" type="curve" smooth="yes"/>
      <point x="163" y="336"/>
      <point x="136" y="319"/>
      <point x="119" y="292" type="curve" smooth="yes"/>
      <point x="102" y="265"/>
      <point x="96" y="228"/>
      <point x="96" y="193" type="curve" smooth="yes"/>
      <point x="96" y="0" type="line" smooth="no"/>
      <point x="46" y="0" type="line" smooth="no"/>
      <point x="46" y="193" type="line" smooth="no"/>
    </contour>
  </outline>
</glyph>
<glyph name="i" format="1">
  <advance width="998"/>
  <unicode hex="0069"/>
  <outline>
    <contour>
      <point x="136" y="998" type="line"/>
      <point x="563" y="998" type="line"/>
      <point x="563" y="133" type="line"/>
      <point x="914" y="133" type="line"/>
      <point x="914" y="0" type="line"/>
      <point x="84" y="0" type="line"/>
      <point x="84" y="133" type="line"/>
      <point x="435" y="133" type="line"/>
      <point x="435" y="868" type="line"/>
      <point x="136" y="868" type="line"/>
    </contour>
    <contour>
      <point x="621" y="1329" type="curve" smooth="yes"/>
      <point x="621" y="1260"/>
      <point x="567" y="1203"/>
      <point x="498" y="1203" type="curve" smooth="yes"/>
      <point x="429" y="1203"/>
      <point x="375" y="1260"/>
      <point x="375" y="1329" type="curve" smooth="yes"/>
      <point x="375" y="1398"/>
      <point x="429" y="1452"/>
      <point x="498" y="1452" type="curve" smooth="yes"/>
      <point x="567" y="1452"/>
      <point x="621" y="1398"/>
    </contour>
  </outline>
</glyph>
<glyph name="j" format="1">
  <advance width="998"/>
  <unicode hex="006a"/>
  <outline>
    <contour>
      <point x="271" y="998" type="line" smooth="no"/>
      <point x="835" y="998" type="line" smooth="no"/>
      <point x="835" y="169" type="line" smooth="no"/>
      <point x="835" y="169"/>
      <point x="840" y="-20"/>
      <point x="796" y="-128" type="curve" smooth="yes"/>
      <point x="752" y="-236"/>
      <point x="643" y="-333"/>
      <point x="461" y="-333" type="curve" smooth="yes"/>
      <point x="279" y="-333"/>
      <point x="187" y="-236"/>
      <point x="151" y="-141" type="curve" smooth="yes"/>
      <point x="115" y="-46"/>
      <point x="138" y="41"/>
      <point x="138" y="41" type="curve" smooth="no"/>
      <point x="253" y="20" type="line" smooth="no"/>
      <point x="253" y="20"/>
      <point x="246" y="-41"/>
      <point x="266" y="-95" type="curve" smooth="yes"/>
      <point x="286" y="-149"/>
      <point x="318" y="-218"/>
      <point x="461" y="-218" type="curve" smooth="yes"/>
      <point x="604" y="-218"/>
      <point x="645" y="-153"/>
      <point x="673" y="-79" type="curve" smooth="yes"/>
      <point x="701" y="-5"/>
      <point x="699" y="169"/>
      <point x="699" y="169" type="curve" smooth="no"/>
      <point x="699" y="868" type="line" smooth="no"/>
      <point x="271" y="868" type="line" smooth="no"/>
    </contour>
    <contour>
      <point x="868" y="1331" type="curve" smooth="yes"/>
      <point x="868" y="1262"/>
      <point x="814" y="1206"/>
      <point x="745" y="1206" type="curve" smooth="yes"/>
      <point x="676" y="1206"/>
      <point x="622" y="1262"/>
      <point x="622" y="1331" type="curve" smooth="yes"/>
      <point x="622" y="1400"/>
      <point x="676" y="1457"/>
      <point x="745" y="1457" type="curve" smooth="yes"/>
      <point x="814" y="1457"/>
      <point x="868" y="1400"/>
    </contour>
  </outline>
</glyph>
<glyph name="k" format="1">
  <advance width="390"/>
  <unicode hex="006b"/>
  <outline>
    <contour>
      <point x="36" y="520" type="line" smooth="no"/>
      <point x="87" y="520" type="line" smooth="no"/>
      <point x="87" y="167" type="line" smooth="no"/>
      <point x="294" y="389" type="line" smooth="no"/>
      <point x="331" y="355" type="line" smooth="no"/>
      <point x="192" y="205" type="line" smooth="no"/>
      <point x="354" y="5" type="line" smooth="no"/>
      <point x="354" y="0" type="line" smooth="no"/>
      <point x="291" y="0" type="line" smooth="no"/>
      <point x="156" y="167" type="line" smooth="no"/>
      <point x="87" y="93" type="line" smooth="no"/>
      <point x="87" y="0" type="line" smooth="no"/>
      <point x="36" y="0" type="line" smooth="no"/>
    </contour>
  </outline>
</glyph>
<glyph name="l" format="1">
  <advance width="998"/>
  <unicode hex="006c"/>
  <outline>
    <contour>
      <point x="74" y="1331" type="line" smooth="no"/>
      <point x="563" y="1331" type="line" smooth="no"/>
      <point x="563" y="131" type="line" smooth="no"/>
      <point x="924" y="131" type="line" smooth="no"/>
      <point x="924" y="0" type="line" smooth="no"/>
      <point x="74" y="0" type="line" smooth="no"/>
      <point x="74" y="131" type="line" smooth="no"/>
      <point x="435" y="131" type="line" smooth="no"/>
      <point x="435" y="1203" type="line" smooth="no"/>
      <point x="74" y="1203" type="line" smooth="no"/>
    </contour>
  </outline>
</glyph>
<glyph name="m" format="1">
  <advance width="390"/>
  <unicode hex="006d"/>
  <outline>
    <contour>
      <point x="28" y="390" type="line" smooth="no"/>
      <point x="69" y="390" type="line" smooth="no"/>
      <point x="79" y="361" type="line" smooth="no"/>
      <point x="95" y="377"/>
      <point x="111" y="391"/>
      <point x="140" y="390" type="curve" smooth="yes"/>
      <point x="169" y="389"/>
      <point x="187" y="368"/>
      <point x="198" y="350" type="curve" smooth="no"/>
      <point x="214" y="371"/>
      <point x="235" y="390"/>
      <point x="273" y="390" type="curve" smooth="yes"/>
      <point x="311" y="390"/>
      <point x="339" y="359"/>
      <point x="350" y="336" type="curve" smooth="yes"/>
      <point x="361" y="313"/>
      <point x="362" y="292"/>
      <point x="362" y="280" type="curve" smooth="yes"/>
      <point x="362" y="0" type="line" smooth="no"/>
      <point x="310" y="0" type="line" smooth="no"/>
      <point x="310" y="280" type="line" smooth="yes"/>
      <point x="310" y="289"/>
      <point x="311" y="304"/>
      <point x="306" y="315" type="curve" smooth="yes"/>
      <point x="301" y="326"/>
      <point x="294" y="337"/>
      <point x="274" y="339" type="curve" smooth="yes"/>
      <point x="258" y="341"/>
      <point x="245" y="334"/>
      <point x="234" y="323" type="curve" smooth="yes"/>
      <point x="223" y="312"/>
      <point x="221" y="288"/>
      <point x="221" y="288" type="curve" smooth="no"/>
      <point x="221" y="0" type="line" smooth="no"/>
      <point x="169" y="0" type="line" smooth="no"/>
      <point x="169" y="280" type="line" smooth="yes"/>
      <point x="169" y="289"/>
      <point x="170" y="304"/>
      <point x="165" y="315" type="curve" smooth="yes"/>
      <point x="160" y="326"/>
      <point x="153" y="337"/>
      <point x="133" y="339" type="curve" smooth="yes"/>
      <point x="118" y="341"/>
      <point x="101" y="334"/>
      <point x="90" y="323" type="curve" smooth="yes"/>
      <point x="83" y="315"/>
      <point x="79" y="305"/>
      <point x="79" y="294" type="curve" smooth="yes"/>
      <point x="79" y="0" type="line" smooth="no"/>
      <point x="28" y="0" type="line" smooth="no"/>
    </contour>
  </outline>
</glyph>
<glyph name="n" format="1">
  <advance width="390"/>
  <unicode hex="006e"/>
  <outline>
    <contour>
      <point x="207" y="390.4" type="curve" smooth="yes"/>
      <point x="254" y="390.4"/>
      <point x="285" y="369.4"/>
      <point x="309" y="332.4" type="curve" smooth="yes"/>
      <point x="333" y="295.4"/>
      <point x="334" y="253.4"/>
      <point x="334" y="212.4" type="curve" smooth="yes"/>
      <point x="334" y="0.400391" type="line" smooth="no"/>
      <point x="283" y="0.400391" type="line" smooth="no"/>
      <point x="283" y="212.4" type="line" smooth="yes"/>
      <point x="283" y="250.4"/>
      <point x="280" y="281.4"/>
      <point x="269" y="301.4" type="curve" smooth="yes"/>
      <point x="258" y="321.4"/>
      <point x="244" y="334.4"/>
      <point x="211" y="339.4" type="curve" smooth="yes"/>
      <point x="166" y="346.4"/>
      <point x="107" y="333"/>
      <point x="107" y="246" type="curve" smooth="yes"/>
      <point x="107" y="0" type="line" smooth="no"/>
      <point x="56" y="0" type="line" smooth="no"/>
      <point x="56" y="390" type="line" smooth="no"/>
      <point x="100" y="390" type="line" smooth="no"/>
      <point x="107" y="355" type="line" smooth="no"/>
      <point x="131" y="375"/>
      <point x="160" y="390.4"/>
    </contour>
  </outline>
</glyph>
<glyph name="o" format="1">
  <advance width="390"/>
  <unicode hex="006f"/>
  <outline>
    <contour>
      <point x="195" y="390.4" type="curve" smooth="yes"/>
      <point x="252" y="390.4"/>
      <point x="295" y="361.4"/>
      <point x="319" y="323.4" type="curve" smooth="yes"/>
      <point x="343" y="285.4"/>
      <point x="354" y="238.4"/>
      <point x="354" y="196.4" type="curve" smooth="yes"/>
      <point x="354" y="154.4"/>
      <point x="343" y="105"/>
      <point x="319" y="67" type="curve" smooth="yes"/>
      <point x="295" y="29"/>
      <point x="251" y="0"/>
      <point x="194" y="0" type="curve" smooth="yes"/>
      <point x="137" y="0"/>
      <point x="93" y="29"/>
      <point x="69" y="67" type="curve" smooth="yes"/>
      <point x="45" y="105"/>
      <point x="36" y="154.4"/>
      <point x="36" y="196.4" type="curve" smooth="yes"/>
      <point x="36" y="238.4"/>
      <point x="46" y="285.4"/>
      <point x="70" y="323.4" type="curve" smooth="yes"/>
      <point x="94" y="361.4"/>
      <point x="138" y="390.4"/>
    </contour>
    <contour>
      <point x="195" y="339.4" type="curve" smooth="yes"/>
      <point x="154" y="339.4"/>
      <point x="131" y="322.4"/>
      <point x="114" y="295.4" type="curve" smooth="yes"/>
      <point x="97" y="268.4"/>
      <point x="87" y="230.4"/>
      <point x="87" y="196.4" type="curve" smooth="yes"/>
      <point x="87" y="162.4"/>
      <point x="95" y="121"/>
      <point x="112" y="94" type="curve" smooth="yes"/>
      <point x="129" y="67"/>
      <point x="152" y="50"/>
      <point x="194" y="50" type="curve" smooth="yes"/>
      <point x="236" y="50"/>
      <point x="259" y="67"/>
      <point x="276" y="94" type="curve" smooth="yes"/>
      <point x="293" y="121"/>
      <point x="303" y="162.4"/>
      <point x="303" y="196.4" type="curve" smooth="yes"/>
      <point x="303" y="230.4"/>
      <point x="294" y="268.4"/>
      <point x="277" y="295.4" type="curve" smooth="yes"/>
      <point x="260" y="322.4"/>
      <point x="236" y="339.4"/>
    </contour>
  </outline>
</glyph>
<glyph name="p" format="1">
  <advance width="390"/>
  <unicode hex="0070"/>
  <outline>
    <contour>
      <point x="37" y="390" type="line" smooth="no"/>
      <point x="78" y="390" type="line" smooth="no"/>
      <point x="88" y="341" type="line" smooth="no"/>
      <point x="113" y="369"/>
      <point x="149" y="389"/>
      <point x="195" y="389" type="curve" smooth="yes"/>
      <point x="251" y="389"/>
      <point x="295" y="360"/>
      <point x="319" y="322" type="curve" smooth="yes"/>
      <point x="343" y="284"/>
      <point x="353" y="236"/>
      <point x="353" y="194" type="curve" smooth="yes"/>
      <point x="353" y="152"/>
      <point x="343" y="104"/>
      <point x="319" y="66" type="curve" smooth="yes"/>
      <point x="295" y="28"/>
      <point x="252" y="-1"/>
      <point x="195" y="-1" type="curve" smooth="yes"/>
      <point x="149" y="-1"/>
      <point x="113" y="18"/>
      <point x="88" y="46" type="curve" smooth="no"/>
      <point x="88" y="-130" type="line" smooth="no"/>
      <point x="37" y="-130" type="line" smooth="no"/>
    </contour>
    <contour>
      <point x="195" y="338" type="curve" smooth="yes"/>
      <point x="154" y="338"/>
      <point x="126" y="321"/>
      <point x="109" y="294" type="curve" smooth="yes"/>
      <point x="92" y="267"/>
      <point x="88" y="229"/>
      <point x="88" y="194" type="curve" smooth="yes"/>
      <point x="88" y="159"/>
      <point x="91" y="121"/>
      <point x="108" y="94" type="curve" smooth="yes"/>
      <point x="125" y="67"/>
      <point x="154" y="50"/>
      <point x="195" y="50" type="curve" smooth="yes"/>
      <point x="236" y="50"/>
      <point x="260" y="67"/>
      <point x="277" y="94" type="curve" smooth="yes"/>
      <point x="294" y="121"/>
      <point x="302" y="159"/>
      <point x="302" y="194" type="curve" smooth="yes"/>
      <point x="302" y="229"/>
      <point x="294" y="267"/>
      <point x="277" y="294" type="curve" smooth="yes"/>
      <point x="260" y="321"/>
      <point x="236" y="338"/>
    </contour>
  </outline>
</glyph>
<glyph name="q" format="1">
  <advance width="390"/>
  <unicode hex="0071"/>
  <outline>
    <contour>
      <point x="353" y="390" type="line" smooth="no"/>
      <point x="353" y="-130" type="line" smooth="no"/>
      <point x="302" y="-130" type="line" smooth="no"/>
      <point x="302" y="47" type="line" smooth="no"/>
      <point x="277" y="19"/>
      <point x="241" y="0"/>
      <point x="195" y="0" type="curve" smooth="yes"/>
      <point x="138" y="0"/>
      <point x="94" y="29"/>
      <point x="70" y="67" type="curve" smooth="yes"/>
      <point x="46" y="105"/>
      <point x="37" y="153"/>
      <point x="37" y="195" type="curve" smooth="yes"/>
      <point x="37" y="237"/>
      <point x="47" y="285"/>
      <point x="71" y="323" type="curve" smooth="yes"/>
      <point x="95" y="361"/>
      <point x="139" y="390"/>
      <point x="195" y="390" type="curve" smooth="yes"/>
      <point x="241" y="390"/>
      <point x="277" y="370"/>
      <point x="302" y="342" type="curve" smooth="no"/>
      <point x="313" y="390" type="line" smooth="no"/>
    </contour>
    <contour>
      <point x="195" y="339" type="curve" smooth="yes"/>
      <point x="154" y="339"/>
      <point x="131" y="322"/>
      <point x="114" y="295" type="curve" smooth="yes"/>
      <point x="97" y="268"/>
      <point x="88" y="230"/>
      <point x="88" y="195" type="curve" smooth="yes"/>
      <point x="88" y="160"/>
      <point x="97" y="122"/>
      <point x="114" y="95" type="curve" smooth="yes"/>
      <point x="131" y="68"/>
      <point x="154" y="51"/>
      <point x="195" y="51" type="curve" smooth="yes"/>
      <point x="236" y="51"/>
      <point x="265" y="68"/>
      <point x="282" y="95" type="curve" smooth="yes"/>
      <point x="299" y="122"/>
      <point x="301" y="160"/>
      <point x="301" y="195" type="curve" smooth="yes"/>
      <point x="301" y="230"/>
      <point x="299" y="268"/>
      <point x="282" y="295" type="curve" smooth="yes"/>
      <point x="265" y="322"/>
      <point x="236" y="339"/>
    </contour>
  </outline>
</glyph>
<glyph name="r" format="1">
  <advance width="390"/>
  <unicode hex="0072"/>
  <outline>
    <contour>
      <point x="51" y="390.4" type="line" smooth="no"/>
      <point x="94" y="390.4" type="line" smooth="no"/>
      <point x="102" y="343" type="line" smooth="no"/>
      <point x="125" y="366"/>
      <point x="156" y="383"/>
      <point x="192" y="389" type="curve" smooth="yes"/>
      <point x="223" y="394"/>
      <point x="254" y="389"/>
      <point x="283" y="373" type="curve" smooth="yes"/>
      <point x="312" y="357"/>
      <point x="336" y="327"/>
      <point x="339" y="289" type="curve" smooth="no"/>
      <point x="287" y="284" type="line" smooth="no"/>
      <point x="285" y="305"/>
      <point x="276" y="318"/>
      <point x="259" y="328" type="curve" smooth="yes"/>
      <point x="242" y="338"/>
      <point x="213" y="343"/>
      <point x="188" y="338" type="curve" smooth="yes"/>
      <point x="148" y="330"/>
      <point x="105" y="316"/>
      <point x="105" y="222" type="curve" smooth="yes"/>
      <point x="105" y="0" type="line" smooth="no"/>
      <point x="51" y="0" type="line" smooth="no"/>
    </contour>
  </outline>
</glyph>
<glyph name="s" format="1">
  <advance width="390"/>
  <unicode hex="0073"/>
  <outline>
    <contour>
      <point x="97" y="359" type="curve" smooth="yes"/>
      <point x="140" y="395"/>
      <point x="224" y="397"/>
      <point x="263" y="377" type="curve" smooth="yes"/>
      <point x="302" y="357"/>
      <point x="320" y="334"/>
      <point x="327" y="301" type="curve" smooth="no"/>
      <point x="286" y="284" type="line" smooth="no"/>
      <point x="277" y="308"/>
      <point x="266" y="322"/>
      <point x="250" y="330" type="curve" smooth="yes"/>
      <point x="234" y="338"/>
      <point x="211" y="341"/>
      <point x="181" y="339" type="curve" smooth="yes"/>
      <point x="155" y="337"/>
      <point x="132" y="327"/>
      <point x="119" y="312" type="curve" smooth="yes"/>
      <point x="95" y="284"/>
      <point x="109" y="245"/>
      <point x="147" y="235" type="curve" smooth="yes"/>
      <point x="185" y="225"/>
      <point x="234.084" y="214"/>
      <point x="272.084" y="203" type="curve" smooth="yes"/>
      <point x="310.084" y="192"/>
      <point x="329.084" y="169"/>
      <point x="339.084" y="136" type="curve" smooth="yes"/>
      <point x="349.084" y="103"/>
      <point x="339.084" y="66"/>
      <point x="314.084" y="40" type="curve" smooth="yes"/>
      <point x="288.084" y="14"/>
      <point x="247.084" y="0"/>
      <point x="192.084" y="0" type="curve" smooth="yes"/>
      <point x="137.084" y="0"/>
      <point x="101.084" y="13"/>
      <point x="77.084" y="35" type="curve" smooth="yes"/>
      <point x="53.084" y="57"/>
      <point x="47.084" y="86"/>
      <point x="47.084" y="107" type="curve" smooth="no"/>
      <point x="94.084" y="111" type="line" smooth="no"/>
      <point x="96.084" y="96"/>
      <point x="99.084" y="83"/>
      <point x="111.084" y="72" type="curve" smooth="yes"/>
      <point x="123.084" y="61"/>
      <point x="145.084" y="50"/>
      <point x="192.084" y="50" type="curve" smooth="yes"/>
      <point x="238.084" y="50"/>
      <point x="265.084" y="62"/>
      <point x="278.084" y="76" type="curve" smooth="yes"/>
      <point x="291.084" y="90"/>
      <point x="295.084" y="106"/>
      <point x="290.084" y="125" type="curve" smooth="yes"/>
      <point x="286.084" y="141"/>
      <point x="276.084" y="148"/>
      <point x="256.084" y="155" type="curve" smooth="yes"/>
      <point x="212.084" y="169"/>
      <point x="179" y="177"/>
      <point x="141" y="187" type="curve" smooth="yes"/>
      <point x="103" y="197"/>
      <point x="71" y="216"/>
      <point x="60" y="248" type="curve" smooth="yes"/>
      <point x="47" y="283"/>
      <point x="54" y="323"/>
    </contour>
  </outline>
</glyph>
<glyph name="t" format="1">
  <advance width="390"/>
  <unicode hex="0074"/>
  <outline>
    <contour>
      <point x="150" y="480" type="line" smooth="no"/>
      <point x="201" y="494" type="line" smooth="no"/>
      <point x="201" y="390" type="line" smooth="no"/>
      <point x="338" y="390" type="line" smooth="no"/>
      <point x="338" y="338" type="line" smooth="no"/>
      <point x="201" y="338" type="line" smooth="no"/>
      <point x="201" y="51" type="line" smooth="no"/>
      <point x="337" y="51" type="line" smooth="no"/>
      <point x="337" y="0" type="line" smooth="no"/>
      <point x="150" y="0" type="line" smooth="no"/>
      <point x="150" y="338" type="line" smooth="no"/>
      <point x="48" y="338" type="line" smooth="no"/>
      <point x="48" y="390" type="line" smooth="no"/>
      <point x="150" y="390" type="line" smooth="no"/>
    </contour>
  </outline>
</glyph>
<glyph name="u" format="1">
  <advance width="998"/>
  <unicode hex="0075"/>
  <outline>
    <contour>
      <point x="471" y="-3" type="curve" smooth="yes"/>
      <point x="351" y="-3"/>
      <point x="266" y="51"/>
      <point x="205" y="146" type="curve" smooth="yes"/>
      <point x="144" y="241"/>
      <point x="143" y="348"/>
      <point x="143" y="453" type="curve" smooth="yes"/>
      <point x="143" y="998" type="line" smooth="no"/>
      <point x="274" y="998" type="line" smooth="no"/>
      <point x="274" y="453" type="line" smooth="yes"/>
      <point x="274" y="356"/>
      <point x="282" y="276"/>
      <point x="310" y="225" type="curve" smooth="yes"/>
      <point x="338" y="174"/>
      <point x="374" y="141"/>
      <point x="458" y="128" type="curve" smooth="yes"/>
      <point x="573" y="110"/>
      <point x="724" y="141"/>
      <point x="724" y="364" type="curve" smooth="yes"/>
      <point x="724" y="998" type="line" smooth="no"/>
      <point x="855" y="998" type="line" smooth="no"/>
      <point x="855" y="0" type="line" smooth="no"/>
      <point x="745" y="0" type="line" smooth="no"/>
      <point x="724" y="82" type="line" smooth="no"/>
      <point x="663" y="31"/>
      <point x="591" y="-3"/>
    </contour>
  </outline>
</glyph>
<glyph name="v" format="1">
  <advance width="390"/>
  <unicode hex="0076"/>
  <outline>
    <contour>
      <point x="34" y="390" type="line" smooth="no"/>
      <point x="88" y="390" type="line" smooth="no"/>
      <point x="194" y="77" type="line" smooth="no"/>
      <point x="196" y="64" type="line" smooth="no"/>
      <point x="199" y="77" type="line" smooth="no"/>
      <point x="302" y="390" type="line" smooth="no"/>
      <point x="356" y="390" type="line" smooth="no"/>
      <point x="226" y="0" type="line" smooth="no"/>
      <point x="167" y="0" type="line" smooth="no"/>
    </contour>
  </outline>
</glyph>
<glyph name="w" format="1">
  <advance width="998"/>
  <unicode hex="0077"/>
  <outline>
    <contour>
      <point x="77" y="998" type="line"/>
      <point x="210" y="998" type="line"/>
      <point x="271" y="248" type="line"/>
      <point x="438" y="684" type="line"/>
      <point x="561" y="684" type="line"/>
      <point x="727" y="251" type="line"/>
      <point x="791" y="998" type="line"/>
      <point x="922" y="998" type="line"/>
      <point x="837" y="0" type="line"/>
      <point x="699" y="0" type="line"/>
      <point x="502" y="512" type="line"/>
      <point x="499" y="522" type="line"/>
      <point x="497" y="512" type="line"/>
      <point x="302" y="0" type="line"/>
      <point x="164" y="0" type="line"/>
    </contour>
  </outline>
</glyph>
<glyph name="x" format="1">
  <advance width="998"/>
  <unicode hex="0078"/>
  <outline>
    <contour>
      <point x="87" y="998" type="line"/>
      <point x="246" y="998" type="line"/>
      <point x="497" y="620" type="line"/>
      <point x="497" y="617" type="line"/>
      <point x="499" y="617" type="line"/>
      <point x="499" y="620" type="line"/>
      <point x="755" y="998" type="line"/>
      <point x="911" y="998" type="line"/>
      <point x="579" y="507" type="line"/>
      <point x="922" y="0" type="line"/>
      <point x="763" y="0" type="line"/>
      <point x="502" y="389" type="line"/>
      <point x="502" y="394" type="line"/>
      <point x="499" y="394" type="line"/>
      <point x="497" y="389" type="line"/>
      <point x="236" y="0" type="line"/>
      <point x="77" y="0" type="line"/>
      <point x="420" y="507" type="line"/>
    </contour>
  </outline>
</glyph>
<glyph name="y" format="1">
  <advance width="390"/>
  <unicode hex="0079"/>
  <outline>
    <contour>
      <point x="34" y="390" type="line" smooth="no"/>
      <point x="88" y="390" type="line" smooth="no"/>
      <point x="194" y="109" type="line" smooth="no"/>
      <point x="196" y="98" type="line" smooth="no"/>
      <point x="198" y="109" type="line" smooth="no"/>
      <point x="302" y="390" type="line" smooth="no"/>
      <point x="356" y="390" type="line" smooth="no"/>
      <point x="214" y="2" type="line" smooth="no"/>
      <point x="214" y="2"/>
      <point x="189" y="-55"/>
      <point x="172" y="-78" type="curve" smooth="yes"/>
      <point x="133" y="-130"/>
      <point x="69" y="-135"/>
      <point x="60" y="-136" type="curve" smooth="no"/>
      <point x="60" y="-85" type="line" smooth="no"/>
      <point x="70" y="-83"/>
      <point x="111" y="-77"/>
      <point x="132" y="-48" type="curve" smooth="yes"/>
      <point x="149" y="-25"/>
      <point x="170" y="31"/>
      <point x="170" y="31" type="curve" smooth="no"/>
    </contour>
  </outline>
</glyph>
<glyph name="z" format="1">
  <advance width="390"/>
  <unicode hex="007a"/>
  <outline>
    <contour>
      <point x="45.5" y="390" type="line" smooth="no"/>
      <point x="340.5" y="390" type="line" smooth="no"/>
      <point x="340.5" y="340" type="line" smooth="no"/>
      <point x="105.5" y="51" type="line" smooth="no"/>
      <point x="351.5" y="51" type="line" smooth="no"/>
      <point x="351.5" y="0" type="line" smooth="no"/>
      <point x="38.5" y="0" type="line" smooth="no"/>
      <point x="38.5" y="50" type="line" smooth="no"/>
      <point x="274.5" y="339" type="line" smooth="no"/>
      <point x="45.5" y="339" type="line" smooth="no"/>
    </contour>
  </outline>
</glyph>
<glyph name="braceleft" format="1">
  <advance width="998"/>
  <unicode hex="007B"/>
  <outline>
    <contour>
      <point x="389.788" y="694" type="line"/>
      <point x="418.101" y="662.708"/>
      <point x="464" y="616.746"/>
      <point x="464" y="534" type="curve" smooth="yes"/>
      <point x="464" y="48" type="line" smooth="yes"/>
      <point x="464" y="-60"/>
      <point x="468.994" y="-62"/>
      <point x="553" y="-62" type="curve" smooth="yes"/>
      <point x="708" y="-62" type="line"/>
      <point x="708" y="-162" type="line"/>
      <point x="532" y="-162" type="line"/>
      <point x="358" y="-165"/>
      <point x="358" y="-67"/>
      <point x="358" y="17" type="curve" smooth="yes"/>
      <point x="358" y="470" type="line" smooth="yes"/>
      <point x="358" y="657"/>
      <point x="324" y="647"/>
      <point x="241" y="658" type="curve"/>
      <point x="241" y="730" type="line"/>
      <point x="324" y="741"/>
      <point x="358" y="731"/>
      <point x="358" y="918" type="curve" smooth="yes"/>
      <point x="358" y="1299" type="line" smooth="yes"/>
      <point x="358" y="1383"/>
      <point x="358" y="1481"/>
      <point x="532" y="1478" type="curve"/>
      <point x="708" y="1478" type="line"/>
      <point x="708" y="1378" type="line"/>
      <point x="553" y="1378" type="line" smooth="yes"/>
      <point x="468.994" y="1378"/>
      <point x="464" y="1375"/>
      <point x="464" y="1267" type="curve" smooth="yes"/>
      <point x="464" y="854" type="line" smooth="yes"/>
      <point x="464" y="771.254"/>
      <point x="418.101" y="725.292"/>
      <point x="389.788" y="694" type="curve"/>
    </contour>
  </outline>
</glyph>
<glyph name="bar" format="1">
  <advance width="998"/>
  <unicode hex="007C"/>
  <outline>
    <contour>
      <point x="563" y="-162" type="line"/>
      <point x="563" y="1500" type="line"/>
      <point x="432" y="1500" type="line"/>
      <point x="432" y="-162" type="line"/>
    </contour>
  </outline>
</glyph>
<glyph name="acute" format="1">
  <advance width="998"/>
  <unicode hex="00B4"/>
  <outline>
    <contour>
      <point x="384" y="1083" type="line"/>
      <point x="537" y="1083" type="line"/>
      <point x="759" y="1266" type="line"/>
      <point x="634" y="1331" type="line"/>
    </contour>
  </outline>
</glyph>
<glyph name="uni0243" format="1">
  <advance width="996"/>
  <unicode hex="0243"/>
  <outline>
    <contour>
      <point x="237" y="1205" type="line"/>
      <point x="237" y="755" type="line"/>
      <point x="511" y="755" type="line" smooth="yes"/>
      <point x="598" y="755"/>
      <point x="655" y="772"/>
      <point x="693" y="808" type="curve" smooth="yes"/>
      <point x="731" y="844"/>
      <point x="754" y="898"/>
      <point x="754" y="988" type="curve" smooth="yes"/>
      <point x="754" y="1044"/>
      <point x="734" y="1098"/>
      <point x="698" y="1136" type="curve" smooth="yes"/>
      <point x="662" y="1174"/>
      <point x="606" y="1205"/>
      <point x="511" y="1205" type="curve" smooth="yes"/>
    </contour>
    <contour>
      <point x="107" y="1333" type="line"/>
      <point x="107" y="1333"/>
      <point x="226" y="1334"/>
      <point x="346" y="1334" type="curve" smooth="yes"/>
      <point x="406" y="1334"/>
      <point x="466" y="1334"/>
      <point x="511" y="1333" type="curve"/>
      <point x="634" y="1333"/>
      <point x="729" y="1293"/>
      <point x="793" y="1226" type="curve" smooth="yes"/>
      <point x="857" y="1159"/>
      <point x="882" y="1072"/>
      <point x="882" y="988" type="curve" smooth="yes"/>
      <point x="882" y="873"/>
      <point x="852" y="778"/>
      <point x="783" y="714" type="curve" smooth="yes"/>
      <point x="773" y="704"/>
      <point x="762" y="701"/>
      <point x="757" y="698" type="curve"/>
      <point x="762" y="695"/>
      <point x="773" y="696"/>
      <point x="783" y="691" type="curve"/>
      <point x="803" y="678"/>
      <point x="821" y="665"/>
      <point x="839" y="650" type="curve"/>
      <point x="911" y="583"/>
      <point x="952" y="489"/>
      <point x="952" y="376" type="curve" smooth="yes"/>
      <point x="952" y="266"/>
      <point x="919" y="169"/>
      <point x="852" y="102" type="curve" smooth="yes"/>
      <point x="785" y="35"/>
      <point x="686" y="2"/>
      <point x="573" y="2" type="curve" smooth="yes"/>
      <point x="107" y="2" type="line"/>
      <point x="107" y="304" type="line"/>
      <point x="0" y="304" type="line"/>
      <point x="0" y="430" type="line"/>
      <point x="107" y="430" type="line"/>
    </contour>
    <contour>
      <point x="235" y="304" type="line"/>
      <point x="235" y="130" type="line"/>
      <point x="573" y="130" type="line" smooth="yes"/>
      <point x="660" y="130"/>
      <point x="722" y="156"/>
      <point x="760" y="194" type="curve" smooth="yes"/>
      <point x="798" y="232"/>
      <point x="824" y="292"/>
      <point x="824" y="376" type="curve" smooth="yes"/>
      <point x="824" y="458"/>
      <point x="798" y="511"/>
      <point x="754" y="552" type="curve" smooth="yes"/>
      <point x="710" y="593"/>
      <point x="642" y="619"/>
      <point x="552" y="619" type="curve" smooth="yes"/>
      <point x="235" y="619" type="line"/>
      <point x="235" y="430" type="line"/>
      <point x="490" y="430" type="line"/>
      <point x="490" y="304" type="line"/>
    </contour>
  </outline>
</glyph>
<glyph name="endash" format="1">
  <advance width="996"/>
  <unicode hex="2013"/>
  <outline>
    <contour>
      <point x="128" y="538" type="line"/>
      <point x="870" y="538" type="line"/>
      <point x="870" y="402" type="line"/>
      <point x="128" y="402" type="line"/>
    </contour>
  </outline>
</glyph>
<glyph name="emdash" format="1">
  <advance width="996"/>
  <unicode hex="2014"/>
  <outline>
    <contour>
      <point x="72" y="538" type="line"/>
      <point x="927" y="538" type="line"/>
      <point x="927" y="402" type="line"/>
      <point x="72" y="402" type="line"/>
    </contour>
  </outline>
</glyph>
<glyph name="quoteright" format="1">
  <advance width="996"/>
  <unicode hex="2019"/>
  <outline>
    <contour>
      <point x="440" y="1389" type="line"/>
      <point x="640" y="1358" type="line"/>
      <point x="484" y="998" type="line"/>
      <point x="361" y="998" type="line"/>
    </contour>
  </outline>
</glyph>
<glyph name="Euro" format="1">
  <advance width="998"/>
  <unicode hex="20AC"/>
  <outline>
    <contour>
      <point x="577" y="1339" type="curve" smooth="yes"/>
      <point x="651" y="1339"/>
      <point x="728" y="1324"/>
      <point x="800" y="1275" type="curve" smooth="yes"/>
      <point x="872" y="1226"/>
      <point x="927" y="1145"/>
      <point x="963" y="1027" type="curve"/>
      <point x="848" y="996" type="line"/>
      <point x="820" y="1093"/>
      <point x="769" y="1136"/>
      <point x="725" y="1167" type="curve" smooth="yes"/>
      <point x="681" y="1198"/>
      <point x="633" y="1208"/>
      <point x="577" y="1208" type="curve" smooth="yes"/>
      <point x="472" y="1208"/>
      <point x="380" y="1154"/>
      <point x="311" y="998" type="curve" smooth="yes"/>
      <point x="291.99" y="955.688"/>
      <point x="278.621" y="894.949"/>
      <point x="271.123" y="826.622" type="curve"/>
      <point x="634" y="852" type="line"/>
      <point x="634" y="735" type="line"/>
      <point x="264.129" y="709.617" type="line"/>
      <point x="264.043" y="703.421"/>
      <point x="264" y="697.213"/>
      <point x="264" y="691" type="curve" smooth="yes"/>
      <point x="264" y="655.872"/>
      <point x="265.8" y="620.487"/>
      <point x="269.047" y="586.2" type="curve"/>
      <point x="634" y="586.2" type="line"/>
      <point x="634" y="470" type="line"/>
      <point x="286.358" y="470" type="line"/>
      <point x="293.926" y="433.816"/>
      <point x="303.018" y="401.667"/>
      <point x="313" y="376" type="curve" smooth="yes"/>
      <point x="374" y="220"/>
      <point x="462" y="141"/>
      <point x="595" y="141" type="curve" smooth="yes"/>
      <point x="718" y="141"/>
      <point x="825" y="256"/>
      <point x="840" y="366" type="curve"/>
      <point x="968" y="348" type="line"/>
      <point x="942" y="174"/>
      <point x="792" y="10"/>
      <point x="595" y="10" type="curve" smooth="yes"/>
      <point x="406" y="10"/>
      <point x="267" y="144"/>
      <point x="193" y="328" type="curve" smooth="yes"/>
      <point x="176.668" y="369.689"/>
      <point x="163.476" y="418.028"/>
      <point x="153.743" y="470" type="curve"/>
      <point x="22" y="470" type="line"/>
      <point x="22" y="586.2" type="line"/>
      <point x="138.261" y="586.2" type="line"/>
      <point x="135.445" y="620.147"/>
      <point x="134" y="654.642"/>
      <point x="134" y="689" type="curve" smooth="yes"/>
      <point x="134" y="692.896"/>
      <point x="134.011" y="696.792"/>
      <point x="134.035" y="700.689" type="curve"/>
      <point x="22" y="693" type="line"/>
      <point x="22" y="809.2" type="line"/>
      <point x="138.928" y="817.377" type="line"/>
      <point x="146.117" y="903.349"/>
      <point x="162.126" y="984.882"/>
      <point x="193" y="1052" type="curve" smooth="yes"/>
      <point x="277" y="1239"/>
      <point x="421" y="1339"/>
    </contour>
  </outline>
</glyph>
